<svg width="64" height="65" viewBox="0 0 64 65" fill="none" xmlns="http://www.w3.org/2000/svg">
<circle cx="32" cy="32.5" r="31.2625" fill="#F7F7F7" stroke="#E7EAF1" stroke-width="1.475"/>
<path d="M40.333 27.668C37.573 27.668 35.333 25.428 35.333 22.668C35.333 19.908 37.573 17.668 40.333 17.668C43.093 17.668 45.333 19.908 45.333 22.668C45.333 25.428 43.093 27.668 40.333 27.668ZM40.333 19.668C38.6797 19.668 37.333 21.0146 37.333 22.668C37.333 24.3213 38.6797 25.668 40.333 25.668C41.9863 25.668 43.333 24.3213 43.333 22.668C43.333 21.0146 41.9863 19.668 40.333 19.668Z" fill="#292D32"/>
<path d="M30.9997 34.334H24.333C23.7863 34.334 23.333 33.8807 23.333 33.334C23.333 32.7873 23.7863 32.334 24.333 32.334H30.9997C31.5463 32.334 31.9997 32.7873 31.9997 33.334C31.9997 33.8807 31.5463 34.334 30.9997 34.334Z" fill="#292D32"/>
<path d="M36.333 39.666H24.333C23.7863 39.666 23.333 39.2127 23.333 38.666C23.333 38.1193 23.7863 37.666 24.333 37.666H36.333C36.8797 37.666 37.333 38.1193 37.333 38.666C37.333 39.2127 36.8797 39.666 36.333 39.666Z" fill="#292D32"/>
<path d="M35.0003 46.3346H27.0003C19.7603 46.3346 16.667 43.2413 16.667 36.0013V28.0013C16.667 20.7613 19.7603 17.668 27.0003 17.668H33.667C34.2137 17.668 34.667 18.1213 34.667 18.668C34.667 19.2146 34.2137 19.668 33.667 19.668H27.0003C20.8537 19.668 18.667 21.8546 18.667 28.0013V36.0013C18.667 42.148 20.8537 44.3346 27.0003 44.3346H35.0003C41.147 44.3346 43.3337 42.148 43.3337 36.0013V29.3346C43.3337 28.788 43.787 28.3346 44.3337 28.3346C44.8803 28.3346 45.3337 28.788 45.3337 29.3346V36.0013C45.3337 43.2413 42.2403 46.3346 35.0003 46.3346Z" fill="#292D32"/>
</svg>
