<svg width="16" height="16" viewBox="0 0 16 16" fill="none" xmlns="http://www.w3.org/2000/svg">
<path d="M12.6468 15.1654H3.31348C0.813476 15.1654 0.813477 13.7787 0.813477 12.6654V11.9987C0.813477 11.3587 1.34014 10.832 1.98014 10.832H13.9801C14.6201 10.832 15.1468 11.3587 15.1468 11.9987V12.6654C15.1468 13.7787 15.1468 15.1654 12.6468 15.1654ZM1.98014 11.832C1.88681 11.832 1.81348 11.9054 1.81348 11.9987V12.6654C1.81348 13.7587 1.81348 14.1654 3.31348 14.1654H12.6468C14.1468 14.1654 14.1468 13.7587 14.1468 12.6654V11.9987C14.1468 11.9054 14.0735 11.832 13.9801 11.832H1.98014Z" fill="#FAFBFF"/>
<path d="M13.8135 11.832H2.18018C1.90684 11.832 1.68018 11.6054 1.68018 11.332V8.66536C1.68018 5.93203 3.62018 3.53203 6.28684 2.96536C6.68018 2.8787 7.09351 2.83203 7.51351 2.83203H8.48018C8.90684 2.83203 9.32018 2.8787 9.71351 2.96536C12.3802 3.5387 14.3135 5.9387 14.3135 8.66536V11.332C14.3135 11.6054 14.0935 11.832 13.8135 11.832ZM2.68018 10.832H13.3135V8.66536C13.3135 6.40536 11.7135 4.4187 9.50018 3.9387C9.17351 3.86536 8.83351 3.83203 8.48018 3.83203H7.51351C7.16684 3.83203 6.82684 3.86536 6.50018 3.9387C4.28684 4.41203 2.68018 6.3987 2.68018 8.66536V10.832Z" fill="#FAFBFF"/>
<path d="M6.39301 3.95203C6.17301 3.95203 5.97301 3.80537 5.91301 3.58536C5.85967 3.39203 5.83301 3.1987 5.83301 2.9987C5.83301 1.80536 6.80634 0.832031 7.99967 0.832031C9.19301 0.832031 10.1663 1.80536 10.1663 2.9987C10.1663 3.1987 10.1397 3.39203 10.0863 3.58536C10.0197 3.8387 9.76634 3.9987 9.49967 3.9387C9.17301 3.86536 8.83301 3.83203 8.47967 3.83203H7.51301C7.16634 3.83203 6.82634 3.86536 6.49967 3.9387C6.46634 3.94536 6.43301 3.95203 6.39301 3.95203ZM7.51301 2.83203H8.47967C8.70634 2.83203 8.93967 2.84536 9.15967 2.87203C9.09967 2.28536 8.59967 1.83203 7.99967 1.83203C7.39967 1.83203 6.90634 2.28536 6.83967 2.87203C7.06634 2.84536 7.28634 2.83203 7.51301 2.83203Z" fill="#FAFBFF"/>
<path d="M10 7.83203H6C5.72667 7.83203 5.5 7.60536 5.5 7.33203C5.5 7.0587 5.72667 6.83203 6 6.83203H10C10.2733 6.83203 10.5 7.0587 10.5 7.33203C10.5 7.60536 10.2733 7.83203 10 7.83203Z" fill="#FAFBFF"/>
</svg>
