<svg width="33" height="33" viewBox="0 0 33 33" fill="none" xmlns="http://www.w3.org/2000/svg">
<path d="M25.833 12.1665C23.073 12.1665 20.833 9.9265 20.833 7.1665C20.833 4.4065 23.073 2.1665 25.833 2.1665C28.593 2.1665 30.833 4.4065 30.833 7.1665C30.833 9.9265 28.593 12.1665 25.833 12.1665ZM25.833 4.1665C24.1797 4.1665 22.833 5.51317 22.833 7.1665C22.833 8.81984 24.1797 10.1665 25.833 10.1665C27.4863 10.1665 28.833 8.81984 28.833 7.1665C28.833 5.51317 27.4863 4.1665 25.833 4.1665Z" fill="#574DFF"/>
<path d="M16.4997 18.833H9.83301C9.28634 18.833 8.83301 18.3797 8.83301 17.833C8.83301 17.2863 9.28634 16.833 9.83301 16.833H16.4997C17.0463 16.833 17.4997 17.2863 17.4997 17.833C17.4997 18.3797 17.0463 18.833 16.4997 18.833Z" fill="#574DFF"/>
<path d="M21.833 24.167H9.83301C9.28634 24.167 8.83301 23.7137 8.83301 23.167C8.83301 22.6203 9.28634 22.167 9.83301 22.167H21.833C22.3797 22.167 22.833 22.6203 22.833 23.167C22.833 23.7137 22.3797 24.167 21.833 24.167Z" fill="#574DFF"/>
<path d="M20.5003 30.8332H12.5003C5.26033 30.8332 2.16699 27.7398 2.16699 20.4998V12.4998C2.16699 5.25984 5.26033 2.1665 12.5003 2.1665H19.167C19.7137 2.1665 20.167 2.61984 20.167 3.1665C20.167 3.71317 19.7137 4.1665 19.167 4.1665H12.5003C6.35366 4.1665 4.16699 6.35317 4.16699 12.4998V20.4998C4.16699 26.6465 6.35366 28.8332 12.5003 28.8332H20.5003C26.647 28.8332 28.8337 26.6465 28.8337 20.4998V13.8332C28.8337 13.2865 29.287 12.8332 29.8337 12.8332C30.3803 12.8332 30.8337 13.2865 30.8337 13.8332V20.4998C30.8337 27.7398 27.7403 30.8332 20.5003 30.8332Z" fill="#574DFF"/>
</svg>
