<svg width="20" height="20" viewBox="0 0 20 20" fill="none" xmlns="http://www.w3.org/2000/svg">
<path d="M18.3334 7.70703H1.66675C1.32508 7.70703 1.04175 7.4237 1.04175 7.08203C1.04175 6.74036 1.32508 6.45703 1.66675 6.45703H18.3334C18.6751 6.45703 18.9584 6.74036 18.9584 7.08203C18.9584 7.4237 18.6751 7.70703 18.3334 7.70703Z" fill="#2C2929"/>
<path d="M6.66667 14.375H5C4.65833 14.375 4.375 14.0917 4.375 13.75C4.375 13.4083 4.65833 13.125 5 13.125H6.66667C7.00833 13.125 7.29167 13.4083 7.29167 13.75C7.29167 14.0917 7.00833 14.375 6.66667 14.375Z" fill="#2C2929"/>
<path d="M12.0833 14.375H8.75C8.40833 14.375 8.125 14.0917 8.125 13.75C8.125 13.4083 8.40833 13.125 8.75 13.125H12.0833C12.425 13.125 12.7083 13.4083 12.7083 13.75C12.7083 14.0917 12.425 14.375 12.0833 14.375Z" fill="#2C2929"/>
<path d="M14.6334 17.7096H5.36675C2.05008 17.7096 1.04175 16.7096 1.04175 13.4263V6.5763C1.04175 3.29297 2.05008 2.29297 5.36675 2.29297H14.6251C17.9417 2.29297 18.9501 3.29297 18.9501 6.5763V13.418C18.9584 16.7096 17.9501 17.7096 14.6334 17.7096ZM5.36675 3.54297C2.75008 3.54297 2.29175 3.99297 2.29175 6.5763V13.418C2.29175 16.0013 2.75008 16.4513 5.36675 16.4513H14.6251C17.2417 16.4513 17.7001 16.0013 17.7001 13.418V6.5763C17.7001 3.99297 17.2417 3.54297 14.6251 3.54297H5.36675Z" fill="#2C2929"/>
</svg>
