<svg width="129" height="128" viewBox="0 0 129 128" fill="none" xmlns="http://www.w3.org/2000/svg">
<circle cx="66.0623" cy="65.5608" r="61.4392" fill="#1F1F1F" stroke="#383838" stroke-width="2"/>
<circle cx="62.9392" cy="62.4392" r="61.4392" fill="#FEFEFE" stroke="#121212" stroke-width="2"/>
<path d="M112.139 62.4392C112.139 89.6123 90.1109 111.641 62.9377 111.641C35.7645 111.641 13.7363 89.6123 13.7363 62.4392C13.7363 35.266 35.7645 13.2378 62.9377 13.2378C90.1109 13.2378 112.139 35.266 112.139 62.4392Z" fill="#025E53" stroke="#121212" stroke-width="1.5"/>
<mask id="path-4-inside-1_268_35082" fill="white">
<path fill-rule="evenodd" clip-rule="evenodd" d="M48.4814 80.8134L57.6535 88.9763L95.7215 47.1878L86.5494 39.0249L56.4978 72.0135L41.2935 58.4822L33.2812 67.2775L48.4856 80.8088L48.4814 80.8134Z"/>
</mask>
<path fill-rule="evenodd" clip-rule="evenodd" d="M48.4814 80.8134L57.6535 88.9763L95.7215 47.1878L86.5494 39.0249L56.4978 72.0135L41.2935 58.4822L33.2812 67.2775L48.4856 80.8088L48.4814 80.8134Z" fill="#212121"/>
<path d="M57.6535 88.9763L56.9887 89.7233L57.7271 90.3804L58.3928 89.6497L57.6535 88.9763ZM48.4814 80.8134L47.7422 80.1399L47.0607 80.8877L47.8166 81.5604L48.4814 80.8134ZM95.7215 47.1878L96.4608 47.8612L97.1421 47.1133L96.3864 46.4407L95.7215 47.1878ZM86.5494 39.0249L87.2142 38.2779L86.4758 37.6207L85.8102 38.3515L86.5494 39.0249ZM56.4978 72.0135L55.833 72.7605L56.5714 73.4177L57.2371 72.6869L56.4978 72.0135ZM41.2935 58.4822L41.9583 57.7352L41.2199 57.0781L40.5542 57.8088L41.2935 58.4822ZM33.2812 67.2775L32.542 66.6041L31.8607 67.3519L32.6164 68.0245L33.2812 67.2775ZM48.4856 80.8088L49.2247 81.4823L49.9062 80.7344L49.1504 80.0618L48.4856 80.8088ZM58.3183 88.2293L49.1462 80.0664L47.8166 81.5604L56.9887 89.7233L58.3183 88.2293ZM94.9823 46.5143L56.9143 88.3028L58.3928 89.6497L96.4608 47.8612L94.9823 46.5143ZM85.8846 39.7719L95.0567 47.9348L96.3864 46.4407L87.2142 38.2779L85.8846 39.7719ZM57.2371 72.6869L87.2887 39.6983L85.8102 38.3515L55.7586 71.3401L57.2371 72.6869ZM40.6287 59.2292L55.833 72.7605L57.1626 71.2665L41.9583 57.7352L40.6287 59.2292ZM34.0205 67.9509L42.0327 59.1557L40.5542 57.8088L32.542 66.6041L34.0205 67.9509ZM49.1504 80.0618L33.9461 66.5305L32.6164 68.0245L47.8208 81.5558L49.1504 80.0618ZM49.2205 81.487L49.2247 81.4823L47.7464 80.1352L47.7422 80.1399L49.2205 81.487Z" fill="#656565" mask="url(#path-4-inside-1_268_35082)"/>
<mask id="path-6-inside-2_268_35082" fill="white">
<path fill-rule="evenodd" clip-rule="evenodd" d="M46.9189 79.2524L56.091 87.4152L94.159 45.6267L84.9869 37.4639L54.9353 70.4525L39.731 56.9212L31.7188 65.7165L46.9231 79.2477L46.9189 79.2524Z"/>
</mask>
<path fill-rule="evenodd" clip-rule="evenodd" d="M46.9189 79.2524L56.091 87.4152L94.159 45.6267L84.9869 37.4639L54.9353 70.4525L39.731 56.9212L31.7188 65.7165L46.9231 79.2477L46.9189 79.2524Z" fill="#FEFEFE"/>
<path d="M56.091 87.4152L55.5592 88.0128L56.1499 88.5386L56.6824 87.954L56.091 87.4152ZM46.9189 79.2524L46.3275 78.7136L45.7824 79.3119L46.387 79.85L46.9189 79.2524ZM94.159 45.6267L94.7505 46.1655L95.2955 45.5672L94.6909 45.0291L94.159 45.6267ZM84.9869 37.4639L85.5188 36.8663L84.928 36.3405L84.3955 36.9251L84.9869 37.4639ZM54.9353 70.4525L54.4035 71.0501L54.9942 71.5758L55.5267 70.9912L54.9353 70.4525ZM39.731 56.9212L40.2628 56.3236L39.6721 55.7979L39.1396 56.3824L39.731 56.9212ZM31.7188 65.7165L31.1274 65.1777L30.5823 65.776L31.1869 66.3141L31.7188 65.7165ZM46.9231 79.2477L47.5145 79.7865L48.0596 79.1882L47.4549 78.6501L46.9231 79.2477ZM56.6229 86.8176L47.4507 78.6548L46.387 79.85L55.5592 88.0128L56.6229 86.8176ZM93.5677 45.088L55.4996 86.8765L56.6824 87.954L94.7505 46.1655L93.5677 45.088ZM84.4551 38.0615L93.6272 46.2243L94.6909 45.0291L85.5188 36.8663L84.4551 38.0615ZM55.5267 70.9912L85.5783 38.0026L84.3955 36.9251L54.3439 69.9137L55.5267 70.9912ZM39.1991 57.5188L54.4035 71.0501L55.4672 69.8549L40.2628 56.3236L39.1991 57.5188ZM32.3101 66.2552L40.3224 57.4599L39.1396 56.3824L31.1274 65.1777L32.3101 66.2552ZM47.4549 78.6501L32.2506 65.1188L31.1869 66.3141L46.3912 79.8453L47.4549 78.6501ZM47.5102 79.7911L47.5145 79.7865L46.3317 78.709L46.3275 78.7136L47.5102 79.7911Z" fill="#6F6F6F" mask="url(#path-6-inside-2_268_35082)"/>
</svg>
