<svg width="48" height="48" viewBox="0 0 48 48" fill="none" xmlns="http://www.w3.org/2000/svg">
<rect x="0.5" y="0.5" width="47" height="47" rx="23.5" fill="#FEFEFE" stroke="#E7EAF1"/>
<path d="M24.9998 26.75H23.9998C23.5898 26.75 23.2498 26.41 23.2498 26C23.2498 25.59 23.5898 25.25 23.9998 25.25H24.9998C25.6898 25.25 26.2498 24.69 26.2498 24V14.75H17.9998C16.8198 14.75 15.7398 15.39 15.1598 16.42C14.9598 16.78 14.4998 16.91 14.1398 16.71C13.7798 16.51 13.6498 16.05 13.8498 15.69C14.6898 14.19 16.2798 13.25 17.9998 13.25H26.9998C27.4098 13.25 27.7498 13.59 27.7498 14V24C27.7498 25.52 26.5198 26.75 24.9998 26.75Z" fill="#636C71"/>
<path d="M31 32.75H30C29.59 32.75 29.25 32.41 29.25 32C29.25 31.31 28.69 30.75 28 30.75C27.31 30.75 26.75 31.31 26.75 32C26.75 32.41 26.41 32.75 26 32.75H22C21.59 32.75 21.25 32.41 21.25 32C21.25 31.31 20.69 30.75 20 30.75C19.31 30.75 18.75 31.31 18.75 32C18.75 32.41 18.41 32.75 18 32.75H17C14.93 32.75 13.25 31.07 13.25 29C13.25 28.59 13.59 28.25 14 28.25C14.41 28.25 14.75 28.59 14.75 29C14.75 30.24 15.76 31.25 17 31.25H17.35C17.68 30.1 18.74 29.25 20 29.25C21.26 29.25 22.32 30.1 22.65 31.25H25.36C25.69 30.1 26.75 29.25 28.01 29.25C29.27 29.25 30.33 30.1 30.66 31.25H31C32.24 31.25 33.25 30.24 33.25 29V26.75H31C30.04 26.75 29.25 25.96 29.25 25V22C29.25 21.04 30.03 20.25 31 20.25L29.93 18.38C29.71 17.99 29.29 17.75 28.84 17.75H27.75V24C27.75 25.52 26.52 26.75 25 26.75H24C23.59 26.75 23.25 26.41 23.25 26C23.25 25.59 23.59 25.25 24 25.25H25C25.69 25.25 26.25 24.69 26.25 24V17C26.25 16.59 26.59 16.25 27 16.25H28.84C29.83 16.25 30.74 16.78 31.23 17.64L32.94 20.63C33.07 20.86 33.07 21.15 32.94 21.38C32.81 21.61 32.56 21.75 32.29 21.75H31C30.86 21.75 30.75 21.86 30.75 22V25C30.75 25.14 30.86 25.25 31 25.25H34C34.41 25.25 34.75 25.59 34.75 26V29C34.75 31.07 33.07 32.75 31 32.75Z" fill="#636C71"/>
<path d="M20 34.75C18.48 34.75 17.25 33.52 17.25 32C17.25 30.48 18.48 29.25 20 29.25C21.52 29.25 22.75 30.48 22.75 32C22.75 33.52 21.52 34.75 20 34.75ZM20 30.75C19.31 30.75 18.75 31.31 18.75 32C18.75 32.69 19.31 33.25 20 33.25C20.69 33.25 21.25 32.69 21.25 32C21.25 31.31 20.69 30.75 20 30.75Z" fill="#636C71"/>
<path d="M28 34.75C26.48 34.75 25.25 33.52 25.25 32C25.25 30.48 26.48 29.25 28 29.25C29.52 29.25 30.75 30.48 30.75 32C30.75 33.52 29.52 34.75 28 34.75ZM28 30.75C27.31 30.75 26.75 31.31 26.75 32C26.75 32.69 27.31 33.25 28 33.25C28.69 33.25 29.25 32.69 29.25 32C29.25 31.31 28.69 30.75 28 30.75Z" fill="#636C71"/>
<path d="M34 26.75H31C30.04 26.75 29.25 25.96 29.25 25V22C29.25 21.04 30.04 20.25 31 20.25H32.29C32.56 20.25 32.81 20.39 32.94 20.63L34.65 23.63C34.71 23.74 34.75 23.87 34.75 24V26C34.75 26.41 34.41 26.75 34 26.75ZM31 21.75C30.86 21.75 30.75 21.86 30.75 22V25C30.75 25.14 30.86 25.25 31 25.25H33.25V24.2L31.85 21.75H31Z" fill="#636C71"/>
<path d="M20 20.75H14C13.59 20.75 13.25 20.41 13.25 20C13.25 19.59 13.59 19.25 14 19.25H20C20.41 19.25 20.75 19.59 20.75 20C20.75 20.41 20.41 20.75 20 20.75Z" fill="#636C71"/>
<path d="M18 23.75H14C13.59 23.75 13.25 23.41 13.25 23C13.25 22.59 13.59 22.25 14 22.25H18C18.41 22.25 18.75 22.59 18.75 23C18.75 23.41 18.41 23.75 18 23.75Z" fill="#636C71"/>
<path d="M16 26.75H14C13.59 26.75 13.25 26.41 13.25 26C13.25 25.59 13.59 25.25 14 25.25H16C16.41 25.25 16.75 25.59 16.75 26C16.75 26.41 16.41 26.75 16 26.75Z" fill="#636C71"/>
</svg>
