<svg width="48" height="48" viewBox="0 0 48 48" fill="none" xmlns="http://www.w3.org/2000/svg">
<rect x="0.5" y="0.5" width="47" height="47" rx="23.5" fill="#FEFEFE" stroke="#E7EAF1"/>
<path d="M24.0009 26.1699C21.8709 26.1699 20.1309 24.4399 20.1309 22.2999C20.1309 20.1599 21.8709 18.4399 24.0009 18.4399C26.1309 18.4399 27.8709 20.1699 27.8709 22.3099C27.8709 24.4499 26.1309 26.1699 24.0009 26.1699ZM24.0009 19.9399C22.7009 19.9399 21.6309 20.9999 21.6309 22.3099C21.6309 23.6199 22.6909 24.6799 24.0009 24.6799C25.3109 24.6799 26.3709 23.6199 26.3709 22.3099C26.3709 20.9999 25.3009 19.9399 24.0009 19.9399Z" fill="#636C71"/>
<path d="M23.9997 34.76C22.5197 34.76 21.0297 34.2 19.8697 33.09C16.9197 30.25 13.6597 25.72 14.8897 20.33C15.9997 15.44 20.2697 13.25 23.9997 13.25C23.9997 13.25 23.9997 13.25 24.0097 13.25C27.7397 13.25 32.0097 15.44 33.1197 20.34C34.3397 25.73 31.0797 30.25 28.1297 33.09C26.9697 34.2 25.4797 34.76 23.9997 34.76ZM23.9997 14.75C21.0897 14.75 17.3497 16.3 16.3597 20.66C15.2797 25.37 18.2397 29.43 20.9197 32C22.6497 33.67 25.3597 33.67 27.0897 32C29.7597 29.43 32.7197 25.37 31.6597 20.66C30.6597 16.3 26.9097 14.75 23.9997 14.75Z" fill="#636C71"/>
</svg>
