<svg width="48" height="48" viewBox="0 0 48 48" fill="none" xmlns="http://www.w3.org/2000/svg">
<rect x="0.5" y="0.5" width="47" height="47" rx="23.5" fill="#FEFEFE" stroke="#E7EAF1"/>
<path d="M29 33.25H19C15.35 33.25 13.25 31.15 13.25 27.5V20.5C13.25 16.85 15.35 14.75 19 14.75H29C32.65 14.75 34.75 16.85 34.75 20.5V27.5C34.75 31.15 32.65 33.25 29 33.25ZM19 16.25C16.14 16.25 14.75 17.64 14.75 20.5V27.5C14.75 30.36 16.14 31.75 19 31.75H29C31.86 31.75 33.25 30.36 33.25 27.5V20.5C33.25 17.64 31.86 16.25 29 16.25H19Z" fill="#636C71"/>
<path d="M24 27.75C21.93 27.75 20.25 26.07 20.25 24C20.25 21.93 21.93 20.25 24 20.25C26.07 20.25 27.75 21.93 27.75 24C27.75 26.07 26.07 27.75 24 27.75ZM24 21.75C22.76 21.75 21.75 22.76 21.75 24C21.75 25.24 22.76 26.25 24 26.25C25.24 26.25 26.25 25.24 26.25 24C26.25 22.76 25.24 21.75 24 21.75Z" fill="#636C71"/>
<path d="M17.5 27.25C17.09 27.25 16.75 26.91 16.75 26.5V21.5C16.75 21.09 17.09 20.75 17.5 20.75C17.91 20.75 18.25 21.09 18.25 21.5V26.5C18.25 26.91 17.91 27.25 17.5 27.25Z" fill="#636C71"/>
<path d="M30.5 27.25C30.09 27.25 29.75 26.91 29.75 26.5V21.5C29.75 21.09 30.09 20.75 30.5 20.75C30.91 20.75 31.25 21.09 31.25 21.5V26.5C31.25 26.91 30.91 27.25 30.5 27.25Z" fill="#636C71"/>
</svg>
