<svg width="48" height="48" viewBox="0 0 48 48" fill="none" xmlns="http://www.w3.org/2000/svg">
<rect x="0.5" y="0.5" width="47" height="47" rx="23.5" fill="#FEFEFE" stroke="#E7EAF1"/>
<path d="M24 34.81C23.31 34.81 22.66 34.46 22.2 33.85L20.7 31.85C20.67 31.81 20.55 31.76 20.5 31.75H20C15.83 31.75 13.25 30.62 13.25 25V20C13.25 15.58 15.58 13.25 20 13.25H28C32.42 13.25 34.75 15.58 34.75 20V25C34.75 29.42 32.42 31.75 28 31.75H27.5C27.42 31.75 27.35 31.79 27.3 31.85L25.8 33.85C25.34 34.46 24.69 34.81 24 34.81ZM20 14.75C16.42 14.75 14.75 16.42 14.75 20V25C14.75 29.52 16.3 30.25 20 30.25H20.5C21.01 30.25 21.59 30.54 21.9 30.95L23.4 32.95C23.75 33.41 24.25 33.41 24.6 32.95L26.1 30.95C26.43 30.51 26.95 30.25 27.5 30.25H28C31.58 30.25 33.25 28.58 33.25 25V20C33.25 16.42 31.58 14.75 28 14.75H20Z" fill="#636C71"/>
<path d="M29 20.75H19C18.59 20.75 18.25 20.41 18.25 20C18.25 19.59 18.59 19.25 19 19.25H29C29.41 19.25 29.75 19.59 29.75 20C29.75 20.41 29.41 20.75 29 20.75Z" fill="#636C71"/>
<path d="M25 25.75H19C18.59 25.75 18.25 25.41 18.25 25C18.25 24.59 18.59 24.25 19 24.25H25C25.41 24.25 25.75 24.59 25.75 25C25.75 25.41 25.41 25.75 25 25.75Z" fill="#636C71"/>
</svg>
