<svg width="129" height="128" viewBox="0 0 129 128" fill="none" xmlns="http://www.w3.org/2000/svg">
<circle cx="66.0613" cy="65.5603" r="61.4392" fill="#1F1F1F" stroke="#383838" stroke-width="2"/>
<circle cx="62.9382" cy="62.4392" r="61.4392" fill="#FEFEFE" stroke="#121212" stroke-width="2"/>
<path d="M112.138 62.4396C112.138 89.6128 90.1099 111.641 62.9367 111.641C35.7636 111.641 13.7354 89.6128 13.7354 62.4396C13.7354 35.2665 35.7636 13.2383 62.9367 13.2383C90.1099 13.2383 112.138 35.2665 112.138 62.4396Z" fill="#025E53" stroke="#121212" stroke-width="1.5"/>
<mask id="path-4-inside-1_532_45007" fill="white">
<path fill-rule="evenodd" clip-rule="evenodd" d="M48.4804 80.8139L57.6525 88.9768L95.7206 47.1882L86.5484 39.0254L56.4968 72.014L41.2925 58.4827L33.2803 67.278L48.4846 80.8093L48.4804 80.8139Z"/>
</mask>
<path fill-rule="evenodd" clip-rule="evenodd" d="M48.4804 80.8139L57.6525 88.9768L95.7206 47.1882L86.5484 39.0254L56.4968 72.014L41.2925 58.4827L33.2803 67.278L48.4846 80.8093L48.4804 80.8139Z" fill="#212121"/>
<path d="M57.6525 88.9768L56.9877 89.7238L57.7261 90.3809L58.3918 89.6502L57.6525 88.9768ZM48.4804 80.8139L47.7412 80.1404L47.0597 80.8882L47.8156 81.5609L48.4804 80.8139ZM95.7206 47.1882L96.4598 47.8617L97.1411 47.1138L96.3854 46.4412L95.7206 47.1882ZM86.5484 39.0254L87.2132 38.2784L86.4748 37.6212L85.8092 38.352L86.5484 39.0254ZM56.4968 72.014L55.832 72.761L56.5704 73.4181L57.2361 72.6874L56.4968 72.014ZM41.2925 58.4827L41.9573 57.7357L41.2189 57.0786L40.5532 57.8093L41.2925 58.4827ZM33.2803 67.278L32.541 66.6045L31.8597 67.3524L32.6155 68.025L33.2803 67.278ZM48.4846 80.8093L49.2238 81.4828L49.9053 80.7349L49.1494 80.0622L48.4846 80.8093ZM58.3173 88.2297L49.1452 80.0669L47.8156 81.5609L56.9877 89.7238L58.3173 88.2297ZM94.9813 46.5148L56.9133 88.3033L58.3918 89.6502L96.4598 47.8617L94.9813 46.5148ZM85.8836 39.7724L95.0558 47.9353L96.3854 46.4412L87.2132 38.2784L85.8836 39.7724ZM57.2361 72.6874L87.2877 39.6988L85.8092 38.352L55.7576 71.3406L57.2361 72.6874ZM40.6277 59.2297L55.832 72.761L57.1616 71.267L41.9573 57.7357L40.6277 59.2297ZM34.0195 67.9514L42.0317 59.1561L40.5532 57.8093L32.541 66.6045L34.0195 67.9514ZM49.1494 80.0622L33.9451 66.531L32.6155 68.025L47.8198 81.5563L49.1494 80.0622ZM49.2195 81.4874L49.2238 81.4828L47.7455 80.1357L47.7412 80.1404L49.2195 81.4874Z" fill="#656565" mask="url(#path-4-inside-1_532_45007)"/>
<mask id="path-6-inside-2_532_45007" fill="white">
<path fill-rule="evenodd" clip-rule="evenodd" d="M46.9179 79.2524L56.09 87.4152L94.1581 45.6267L84.9859 37.4639L54.9343 70.4525L39.73 56.9212L31.7178 65.7165L46.9221 79.2477L46.9179 79.2524Z"/>
</mask>
<path fill-rule="evenodd" clip-rule="evenodd" d="M46.9179 79.2524L56.09 87.4152L94.1581 45.6267L84.9859 37.4639L54.9343 70.4525L39.73 56.9212L31.7178 65.7165L46.9221 79.2477L46.9179 79.2524Z" fill="#FEFEFE"/>
<path d="M56.09 87.4152L55.5582 88.0128L56.1489 88.5386L56.6814 87.954L56.09 87.4152ZM46.9179 79.2524L46.3265 78.7136L45.7814 79.3119L46.386 79.85L46.9179 79.2524ZM94.1581 45.6267L94.7495 46.1655L95.2945 45.5672L94.6899 45.0291L94.1581 45.6267ZM84.9859 37.4639L85.5178 36.8663L84.9271 36.3405L84.3945 36.9251L84.9859 37.4639ZM54.9343 70.4525L54.4025 71.0501L54.9932 71.5758L55.5257 70.9912L54.9343 70.4525ZM39.73 56.9212L40.2618 56.3236L39.6711 55.7979L39.1386 56.3824L39.73 56.9212ZM31.7178 65.7165L31.1264 65.1777L30.5813 65.776L31.1859 66.3141L31.7178 65.7165ZM46.9221 79.2477L47.5135 79.7865L48.0586 79.1882L47.454 78.6501L46.9221 79.2477ZM56.6219 86.8176L47.4497 78.6548L46.386 79.85L55.5582 88.0128L56.6219 86.8176ZM93.5667 45.088L55.4986 86.8765L56.6814 87.954L94.7495 46.1655L93.5667 45.088ZM84.4541 38.0615L93.6262 46.2243L94.6899 45.0291L85.5178 36.8663L84.4541 38.0615ZM55.5257 70.9912L85.5773 38.0026L84.3945 36.9251L54.3429 69.9137L55.5257 70.9912ZM39.1981 57.5188L54.4025 71.0501L55.4662 69.8549L40.2618 56.3236L39.1981 57.5188ZM32.3092 66.2552L40.3214 57.4599L39.1386 56.3824L31.1264 65.1777L32.3092 66.2552ZM47.454 78.6501L32.2496 65.1188L31.1859 66.3141L46.3903 79.8453L47.454 78.6501ZM47.5093 79.7911L47.5135 79.7865L46.3307 78.709L46.3265 78.7136L47.5093 79.7911Z" fill="#6F6F6F" mask="url(#path-6-inside-2_532_45007)"/>
</svg>
