<svg width="28" height="28" viewBox="0 0 28 28" fill="none" xmlns="http://www.w3.org/2000/svg">
<path d="M14.0007 26.5423C7.08232 26.5423 1.45898 20.919 1.45898 14.0007C1.45898 7.08232 7.08232 1.45898 14.0007 1.45898C20.919 1.45898 26.5423 7.08232 26.5423 14.0007C26.5423 20.919 20.919 26.5423 14.0007 26.5423ZM14.0007 3.20898C8.05065 3.20898 3.20898 8.05065 3.20898 14.0007C3.20898 19.9507 8.05065 24.7923 14.0007 24.7923C19.9507 24.7923 24.7923 19.9507 24.7923 14.0007C24.7923 8.05065 19.9507 3.20898 14.0007 3.20898Z" fill="white"/>
<path d="M12.5283 18.9935C12.3067 18.9935 12.085 18.9118 11.91 18.7368C11.5717 18.3985 11.5717 17.8385 11.91 17.5002L15.41 14.0002L11.91 10.5002C11.5717 10.1618 11.5717 9.60185 11.91 9.26352C12.2483 8.92518 12.8083 8.92518 13.1467 9.26352L17.265 13.3818C17.6033 13.7202 17.6033 14.2802 17.265 14.6185L13.1467 18.7368C12.9717 18.9118 12.75 18.9935 12.5283 18.9935Z" fill="white"/>
</svg>
