<svg width="48" height="48" viewBox="0 0 48 48" fill="none" xmlns="http://www.w3.org/2000/svg">
<circle cx="24" cy="24" r="24" fill="#574DFF" fill-opacity="0.1"/>
<path d="M30.9697 34.75H16.9697C13.2197 34.75 13.2197 32.67 13.2197 31V30C13.2197 29.04 14.0097 28.25 14.9697 28.25H32.9697C33.9297 28.25 34.7197 29.04 34.7197 30V31C34.7197 32.67 34.7197 34.75 30.9697 34.75ZM14.9697 29.75C14.8297 29.75 14.7197 29.86 14.7197 30V31C14.7197 32.64 14.7197 33.25 16.9697 33.25H30.9697C33.2197 33.25 33.2197 32.64 33.2197 31V30C33.2197 29.86 33.1097 29.75 32.9697 29.75H14.9697Z" fill="#574DFF"/>
<path d="M32.7195 29.75H15.2695C14.8595 29.75 14.5195 29.41 14.5195 29V25C14.5195 20.9 17.4295 17.3 21.4295 16.45C22.0195 16.32 22.6395 16.25 23.2695 16.25H24.7195C25.3595 16.25 25.9795 16.32 26.5695 16.45C30.5695 17.31 33.4695 20.91 33.4695 25V29C33.4695 29.41 33.1395 29.75 32.7195 29.75ZM16.0195 28.25H31.9695V25C31.9695 21.61 29.5695 18.63 26.2495 17.91C25.7595 17.8 25.2495 17.75 24.7195 17.75H23.2695C22.7495 17.75 22.2395 17.8 21.7495 17.91C18.4295 18.62 16.0195 21.6 16.0195 25V28.25Z" fill="#574DFF"/>
<path d="M21.59 17.93C21.26 17.93 20.96 17.71 20.87 17.38C20.79 17.09 20.75 16.8 20.75 16.5C20.75 14.71 22.21 13.25 24 13.25C25.79 13.25 27.25 14.71 27.25 16.5C27.25 16.8 27.21 17.09 27.13 17.38C27.03 17.76 26.65 18 26.25 17.91C25.76 17.8 25.25 17.75 24.72 17.75H23.27C22.75 17.75 22.24 17.8 21.75 17.91C21.7 17.92 21.65 17.93 21.59 17.93ZM23.27 16.25H24.72C25.06 16.25 25.41 16.27 25.74 16.31C25.65 15.43 24.9 14.75 24 14.75C23.1 14.75 22.36 15.43 22.26 16.31C22.6 16.27 22.93 16.25 23.27 16.25Z" fill="#574DFF"/>
<path d="M27 23.75H21C20.59 23.75 20.25 23.41 20.25 23C20.25 22.59 20.59 22.25 21 22.25H27C27.41 22.25 27.75 22.59 27.75 23C27.75 23.41 27.41 23.75 27 23.75Z" fill="#574DFF"/>
</svg>
