<svg width="129" height="41" viewBox="0 0 129 41" fill="none" xmlns="http://www.w3.org/2000/svg">
<g clip-path="url(#clip0_1289_20143)">
<path d="M55.4551 15.2909C54.2508 14.6459 52.8122 14.3233 51.1394 14.3233H43.8477V30.3323H51.1394C52.8132 30.3323 54.2518 30.0098 55.4551 29.3647C56.6379 28.7386 57.6105 27.779 58.2522 26.6051C58.9125 25.4124 59.2432 23.9867 59.2442 22.3278C59.2452 20.669 58.9145 19.2432 58.2522 18.0505C57.6105 16.8767 56.6379 15.9171 55.4551 15.2909ZM55.9444 25.6375C55.599 26.4362 54.9743 27.0818 54.1871 27.4534C53.3975 27.8281 52.3816 28.015 51.1394 28.014H46.406V16.6416H51.1394C52.3816 16.6416 53.3975 16.8285 54.1871 17.2022C54.9704 17.5724 55.5935 18.2131 55.9414 19.0062C56.3233 19.8351 56.5148 20.9423 56.5158 22.3278C56.5178 23.6984 56.3263 24.8017 55.9414 25.6375H55.9444ZM70.3251 18.875C69.3071 18.4187 68.2004 18.1942 67.085 18.2175C65.7921 18.2175 64.6683 18.4764 63.7136 18.9942C62.7788 19.4905 62.0032 20.2403 61.4759 21.1575C60.9418 22.0798 60.6748 23.1627 60.6748 24.4061C60.6748 25.7121 60.9418 26.8273 61.4759 27.7516C61.9984 28.6652 62.7867 29.3984 63.7359 29.8537C64.7056 30.3328 65.8368 30.5718 67.1297 30.5708C68.1947 30.5914 69.2539 30.4087 70.2505 30.0326C71.0799 29.7259 71.8144 29.2073 72.3807 28.5283C72.894 27.897 73.1691 27.1055 73.1579 26.292V26.0774H70.5757V26.2682C70.5888 26.589 70.5199 26.9079 70.3756 27.1948C70.2312 27.4818 70.0162 27.7272 69.7507 27.9081C69.2018 28.2987 68.3067 28.4941 67.0656 28.4941C65.6315 28.4941 64.6116 28.1676 64.0059 27.5146C63.453 26.9182 63.1546 26.0734 63.1109 24.9801H73.1908C73.2221 24.8042 73.246 24.6252 73.2624 24.4419C73.2788 24.2585 73.2862 24.0632 73.2862 23.8574C73.2862 22.6469 73.0272 21.6231 72.509 20.7863C71.9868 19.9468 71.2266 19.2815 70.3251 18.875ZM63.997 21.2231C64.6026 20.5701 65.6146 20.2436 67.0327 20.2436C68.3087 20.2436 69.2609 20.51 69.8895 21.0427C70.518 21.5754 70.8328 22.3919 70.8338 23.4922V23.5399H63.1124C63.186 22.5619 63.4808 21.7896 63.997 21.2231ZM84.3775 18.869C83.36 18.4129 82.2538 18.1884 81.1389 18.2115C79.846 18.2115 78.7222 18.4704 77.7675 18.9883C76.8325 19.4841 76.0567 20.234 75.5299 21.1515C75.0018 22.0788 74.7377 23.1637 74.7377 24.4061C74.7377 25.7121 75.0048 26.8273 75.5388 27.7516C76.0603 28.6655 76.8482 29.3988 77.7974 29.8537C78.77 30.3318 79.9017 30.5708 81.1926 30.5708C82.2572 30.5913 83.3158 30.4086 84.3119 30.0326C85.1402 29.7253 85.8736 29.2067 86.4392 28.5283C86.9521 27.8968 87.2266 27.1053 87.2149 26.292V26.0774H84.6341V26.2682C84.6469 26.589 84.5779 26.9078 84.4336 27.1947C84.2893 27.4815 84.0744 27.727 83.8092 27.9081C83.2592 28.2987 82.3642 28.4941 81.124 28.4941C79.6889 28.4941 78.6685 28.1676 78.0629 27.5146C77.5094 26.9182 77.2126 26.0714 77.1678 24.9801H87.2388C87.2716 24.8042 87.2954 24.6252 87.3119 24.4419C87.3283 24.2585 87.3357 24.0632 87.3357 23.8574C87.3357 22.6469 87.0767 21.6231 86.5585 20.7863C86.0377 19.9484 85.2804 19.2834 84.382 18.875L84.3775 18.869ZM78.0584 21.2231C78.6641 20.5701 79.6765 20.2436 81.0956 20.2436C82.3696 20.2436 83.3219 20.51 83.9524 21.0427C84.5829 21.5754 84.8977 22.3919 84.8967 23.4922V23.5399H77.1708C77.2394 22.5619 77.5353 21.7896 78.0584 21.2231ZM89.272 14.3174H91.8528V30.3323H89.272V14.3174ZM102.206 14.3174H108.493V16.6357H102.206V30.3323H99.6503V16.6416H93.3356V14.3233H102.206V14.3174ZM109.999 14.3174H112.581V17.0651H109.999V14.3174ZM109.999 18.4516H112.581V30.3323H109.999V18.4516ZM122.956 24.4001L128.073 30.3263H124.94L120.995 25.7866H120.833L116.932 30.3323H113.847L118.964 24.4538V24.3047L113.847 18.4516H116.98L120.924 22.9435H121.074L124.972 18.4516H128.079L122.962 24.257L122.956 24.4001Z" fill="#121212"/>
<path d="M16.2875 1.5127C21.5346 1.5127 25.9224 3.33006 29.4509 6.9648C32.9795 10.5995 34.7437 15.1114 34.7437 20.5004C34.7437 25.8894 32.9795 30.4013 29.4509 34.036C25.9224 37.6707 21.5346 39.4881 16.2875 39.4881H4.9501C4.4074 39.4885 3.86993 39.382 3.36843 39.1747C2.86692 38.9674 2.41121 38.6634 2.02732 38.28C1.64343 37.8966 1.3389 37.4414 1.13112 36.9404C0.923349 36.4393 0.816406 35.9023 0.816406 35.3599V5.64091C0.816406 4.54604 1.2516 3.49601 2.02626 2.72182C2.80092 1.94763 3.85158 1.5127 4.94712 1.5127H16.2875Z" fill="#574DFF"/>
<path d="M25.5745 20.5001C25.5744 21.9264 25.1825 23.3253 24.4417 24.5443C23.7008 25.7634 22.6392 26.7558 21.3728 27.4133C20.1064 28.0709 18.6836 28.3685 17.2596 28.2736C15.8356 28.1786 14.465 27.6949 13.2972 26.875L8.46538 31.7024C8.18468 31.983 7.80396 32.1406 7.40697 32.1406C7.00999 32.1406 6.62927 31.983 6.34856 31.7024C6.06786 31.4219 5.91016 31.0414 5.91016 30.6447C5.91016 30.2479 6.06786 29.8674 6.34856 29.5869L11.2222 24.7177C10.5667 23.6994 10.1576 22.5425 10.0276 21.3387C9.8975 20.1349 10.05 18.9173 10.4729 17.7826C10.8958 16.648 11.5774 15.6274 12.4638 14.802C13.3502 13.9766 14.4169 13.369 15.5792 13.0274C16.7416 12.6858 17.9676 12.6197 19.16 12.8342C20.3523 13.0488 21.4783 13.5381 22.4484 14.2634C23.4185 14.9887 24.2062 15.93 24.7488 17.0126C25.2914 18.0952 25.5742 19.2892 25.5745 20.5001Z" fill="white"/>
</g>
<defs>
<clipPath id="clip0_1289_20143">
<rect width="128.889" height="40" fill="white" transform="translate(0 0.5)"/>
</clipPath>
</defs>
</svg>
