<svg width="28" height="29" viewBox="0 0 28 29" fill="none" xmlns="http://www.w3.org/2000/svg">
<path d="M10.8733 15.9935H14.4783V24.3935C14.4783 25.6302 16.0183 26.2135 16.835 25.2802L25.6667 15.2469C26.4367 14.3719 25.8183 13.0069 24.6517 13.0069H21.0467V4.60687C21.0467 3.37021 19.5067 2.78688 18.69 3.72021L9.85833 13.7535C9.1 14.6285 9.71833 15.9935 10.8733 15.9935Z" fill="#FEFEFE"/>
<path d="M9.91667 6.0415H1.75C1.27167 6.0415 0.875 5.64484 0.875 5.1665C0.875 4.68817 1.27167 4.2915 1.75 4.2915H9.91667C10.395 4.2915 10.7917 4.68817 10.7917 5.1665C10.7917 5.64484 10.395 6.0415 9.91667 6.0415Z" fill="#FEFEFE"/>
<path d="M8.75 24.7085H1.75C1.27167 24.7085 0.875 24.3118 0.875 23.8335C0.875 23.3552 1.27167 22.9585 1.75 22.9585H8.75C9.22833 22.9585 9.625 23.3552 9.625 23.8335C9.625 24.3118 9.22833 24.7085 8.75 24.7085Z" fill="#FEFEFE"/>
<path d="M5.25 15.375H1.75C1.27167 15.375 0.875 14.9783 0.875 14.5C0.875 14.0217 1.27167 13.625 1.75 13.625H5.25C5.72833 13.625 6.125 14.0217 6.125 14.5C6.125 14.9783 5.72833 15.375 5.25 15.375Z" fill="#FEFEFE"/>
</svg>
