<svg width="116" height="36" viewBox="0 0 116 36" fill="none" xmlns="http://www.w3.org/2000/svg">
<g id="DeelTix Logo Full-01 1" clip-path="url(#clip0_1069_25472)">
<path id="Vector" d="M49.9095 13.3117C48.8256 12.7312 47.5309 12.4409 46.0254 12.4409H39.4628V26.849H46.0254C47.5318 26.849 48.8265 26.5587 49.9095 25.9781C50.974 25.4146 51.8494 24.551 52.4269 23.4945C53.0212 22.4211 53.3188 21.1379 53.3197 19.6449C53.3206 18.152 53.023 16.8688 52.4269 15.7954C51.8494 14.7389 50.974 13.8753 49.9095 13.3117ZM50.3499 22.6237C50.0391 23.3425 49.4768 23.9235 48.7683 24.258C48.0577 24.5952 47.1434 24.7634 46.0254 24.7625H41.7654V14.5274H46.0254C47.1434 14.5274 48.0577 14.6956 48.7683 15.0319C49.4733 15.3651 50.0341 15.9417 50.3472 16.6554C50.6909 17.4015 50.8632 18.398 50.8641 19.6449C50.8659 20.8785 50.6936 21.8714 50.3472 22.6237H50.3499ZM63.2925 16.5374C62.3763 16.1268 61.3803 15.9247 60.3764 15.9456C59.2128 15.9456 58.2014 16.1787 57.3421 16.6447C56.5009 17.0913 55.8028 17.7662 55.3282 18.5916C54.8476 19.4218 54.6073 20.3963 54.6073 21.5154C54.6073 22.6908 54.8476 23.6944 55.3282 24.5263C55.7985 25.3486 56.5079 26.0084 57.3623 26.4183C58.235 26.8494 59.2531 27.0645 60.4167 27.0636C61.3752 27.0821 62.3285 26.9177 63.2254 26.5793C63.9719 26.3032 64.6329 25.8364 65.1426 25.2254C65.6046 24.6572 65.8522 23.9448 65.8421 23.2127V23.0195H63.5181V23.1913C63.5298 23.48 63.4678 23.767 63.3379 24.0253C63.208 24.2835 63.0145 24.5044 62.7756 24.6672C62.2815 25.0188 61.476 25.1945 60.3589 25.1945C59.0683 25.1945 58.1504 24.9007 57.6053 24.313C57.1076 23.7763 56.8391 23.0159 56.7997 22.032H65.8716C65.8998 21.8736 65.9213 21.7126 65.9361 21.5476C65.9508 21.3825 65.9576 21.2068 65.9576 21.0216C65.9576 19.9321 65.7244 19.0107 65.2581 18.2575C64.7881 17.502 64.1039 16.9033 63.2925 16.5374ZM57.5972 18.6507C58.1423 18.063 59.053 17.7691 60.3294 17.7691C61.4778 17.7691 62.3348 18.0089 62.9005 18.4883C63.4662 18.9678 63.7494 19.7026 63.7503 20.6929V20.7358H56.8011C56.8673 19.8556 57.1327 19.1606 57.5972 18.6507ZM75.9397 16.532C75.024 16.1215 74.0284 15.9194 73.025 15.9403C71.8614 15.9403 70.85 16.1733 69.9907 16.6393C69.1492 17.0856 68.451 17.7605 67.9768 18.5863C67.5015 19.4209 67.2639 20.3972 67.2639 21.5154C67.2639 22.6908 67.5042 23.6944 67.9849 24.5263C68.4542 25.3488 69.1633 26.0088 70.0176 26.4183C70.8929 26.8485 71.9115 27.0636 73.0733 27.0636C74.0314 27.082 74.9842 26.9176 75.8807 26.5793C76.6261 26.3027 77.2861 25.8359 77.7952 25.2254C78.2568 24.6571 78.5039 23.9447 78.4933 23.2127V23.0195H76.1707V23.1913C76.1822 23.48 76.1201 23.7669 75.9902 24.0251C75.8603 24.2833 75.6669 24.5042 75.4282 24.6672C74.9332 25.0188 74.1277 25.1945 73.0115 25.1945C71.72 25.1945 70.8016 24.9007 70.2565 24.313C69.7584 23.7763 69.4913 23.0142 69.451 22.032H78.5148C78.5444 21.8736 78.5658 21.7126 78.5806 21.5476C78.5954 21.3825 78.6021 21.2068 78.6021 21.0216C78.6021 19.9321 78.3689 19.0107 77.9026 18.2575C77.4339 17.5035 76.7523 16.9049 75.9438 16.5374L75.9397 16.532ZM70.2525 18.6507C70.7976 18.063 71.7088 17.7691 72.986 17.7691C74.1326 17.7691 74.9896 18.0089 75.5571 18.4883C76.1246 18.9678 76.4078 19.7026 76.407 20.6929V20.7358H69.4537C69.5154 19.8556 69.7817 19.1606 70.2525 18.6507ZM80.3448 12.4355H82.6675V26.849H80.3448V12.4355ZM91.9851 12.4355H97.6441V14.522H91.9851V26.849H89.6852V14.5274H84.002V12.4409H91.9851V12.4355ZM98.9988 12.4355H101.323V14.9085H98.9988V12.4355ZM98.9988 16.1563H101.323V26.849H98.9988V16.1563ZM110.661 21.51L115.266 26.8436H112.446L108.895 22.7579H108.75L105.239 26.849H102.463L107.068 21.5583V21.4241L102.463 16.1563H105.282L108.832 20.1991H108.966L112.474 16.1563H115.271L110.666 21.3812L110.661 21.51Z" fill="white"/>
<path id="Vector_2" d="M14.6584 0.911133C19.3808 0.911133 23.3298 2.54676 26.5055 5.81803C29.6811 9.08929 31.269 13.15 31.269 18.0001C31.269 22.8502 29.6811 26.9108 26.5055 30.1821C23.3298 33.4534 19.3808 35.089 14.6584 35.089H4.45473C3.9663 35.0893 3.48258 34.9935 3.03123 34.8069C2.57987 34.6204 2.16973 34.3468 1.82423 34.0017C1.47873 33.6567 1.20465 33.247 1.01765 32.796C0.830654 32.3451 0.734405 31.8617 0.734406 31.3736V4.62653C0.734406 3.64114 1.12608 2.69612 1.82328 1.99935C2.52047 1.30257 3.46607 0.911133 4.45204 0.911133H14.6584Z" fill="#574DFF"/>
<path id="Vector_3" d="M23.0174 18C23.0173 19.2836 22.6647 20.5426 21.9979 21.6398C21.3311 22.7369 20.3757 23.6301 19.2359 24.2219C18.0961 24.8137 16.8157 25.0815 15.5341 24.9961C14.2525 24.9107 13.0189 24.4753 11.9679 23.7374L7.61923 28.0821C7.36659 28.3346 7.02394 28.4764 6.66666 28.4764C6.30937 28.4764 5.96672 28.3346 5.71409 28.0821C5.46145 27.8296 5.31952 27.4872 5.31952 27.1301C5.31952 26.773 5.46145 26.4306 5.71409 26.1781L10.1003 21.7959C9.51037 20.8794 9.14226 19.8381 9.02519 18.7547C8.90813 17.6713 9.04535 16.5755 9.42595 15.5543C9.80656 14.5331 10.4201 13.6146 11.2178 12.8717C12.0156 12.1288 12.9756 11.582 14.0217 11.2745C15.0678 10.9671 16.1712 10.9076 17.2443 11.1007C18.3175 11.2938 19.3308 11.7342 20.2039 12.387C21.0771 13.0398 21.7859 13.8869 22.2743 14.8612C22.7627 15.8356 23.0171 16.9102 23.0174 18Z" fill="white"/>
</g>
<defs>
<clipPath id="clip0_1069_25472">
<rect width="116" height="36" fill="white"/>
</clipPath>
</defs>
</svg>
