<svg width="25" height="24" viewBox="0 0 25 24" fill="none" xmlns="http://www.w3.org/2000/svg">
<path d="M15.5211 4H9.81291C7.31728 4 5.19572 5.96401 4.41994 8.7004C4.16452 9.6013 4.03682 10.0517 4.35765 10.5259C4.67848 11 5.20076 11 6.24532 11H19.0887C20.1332 11 20.6555 11 20.9764 10.5259C21.2972 10.0517 21.1695 9.6013 20.9141 8.7004C20.1383 5.96401 18.0167 4 15.5211 4Z" stroke="#121212" stroke-width="1.25" stroke-linecap="round" stroke-linejoin="round"/>
<path d="M6.66699 15H6.24532C5.20076 15 4.67848 15 4.35764 15.3387C4.03681 15.6773 4.16452 15.9991 4.41993 16.6426C5.19572 18.5971 7.31728 20 9.81292 20H15.5211C18.0167 20 20.1383 18.5971 20.9141 16.6426C21.1695 15.9991 21.2972 15.6773 20.9763 15.3387C20.6555 15 20.1332 15 19.0887 15H14.667" stroke="#121212" stroke-width="1.25" stroke-linecap="round" stroke-linejoin="round"/>
<path d="M19.667 15H20.667C21.7716 15 22.667 14.1046 22.667 13C22.667 11.8954 21.7716 11 20.667 11H12.667M12.667 11L11.1855 12.7284C10.4798 13.5517 10.1269 13.9634 9.66699 13.9634C9.20706 13.9634 8.8542 13.5517 8.14848 12.7284L6.66699 11M12.667 11H6.66699M5.66699 15H4.66699C3.56242 15 2.66699 14.1046 2.66699 13C2.66699 11.8954 3.56242 11 4.66699 11H6.66699" stroke="#121212" stroke-width="1.25" stroke-linecap="round" stroke-linejoin="round"/>
<path d="M9.67544 8H9.66602" stroke="#121212" stroke-width="1.66667" stroke-linecap="round" stroke-linejoin="round"/>
<path d="M15.667 7L14.667 8" stroke="#121212" stroke-width="1.25" stroke-linecap="round" stroke-linejoin="round"/>
</svg>
