<svg width="545" height="228" viewBox="0 0 545 228" fill="none" xmlns="http://www.w3.org/2000/svg">
<rect width="545" height="709" rx="24" fill="#695FFF"/>
<path d="M53.2 41H58.9C59.9267 41 60.8267 41.1933 61.6 41.58C62.3733 41.9667 62.9733 42.5067 63.4 43.2C63.8267 43.88 64.04 44.7 64.04 45.66C64.04 46.5533 63.82 47.3467 63.38 48.04C62.9533 48.72 62.3733 49.24 61.64 49.6L64.4 55H61.08L58.72 50.3H56.2V55H53.2V41ZM56.2 43.5V47.8H58.66C59.3667 47.8 59.9267 47.6067 60.34 47.22C60.7667 46.8333 60.98 46.3133 60.98 45.66C60.98 44.9933 60.7667 44.4667 60.34 44.08C59.9267 43.6933 59.3667 43.5 58.66 43.5H56.2ZM70.2084 55.12C69.0751 55.12 68.0951 54.9067 67.2684 54.48C66.4551 54.04 65.8284 53.4333 65.3884 52.66C64.9484 51.8733 64.7284 50.9467 64.7284 49.88C64.7284 48.8133 64.9418 47.8867 65.3684 47.1C65.8084 46.3 66.4284 45.6867 67.2284 45.26C68.0284 44.82 68.9551 44.6 70.0084 44.6C71.0351 44.6 71.9351 44.8067 72.7084 45.22C73.4818 45.62 74.0884 46.1867 74.5284 46.92C74.9684 47.6533 75.1951 48.5267 75.2084 49.54C75.2084 49.6867 75.2018 49.8467 75.1884 50.02C75.1751 50.18 75.1551 50.34 75.1284 50.5H67.6684C67.6684 50.5133 67.6684 50.5333 67.6684 50.56C67.6684 50.5867 67.6684 50.6133 67.6684 50.64C67.6951 51.1333 67.8084 51.56 68.0084 51.92C68.2218 52.2667 68.5018 52.5333 68.8484 52.72C69.2084 52.8933 69.6218 52.98 70.0884 52.98C70.6618 52.98 71.1351 52.8533 71.5084 52.6C71.8951 52.3467 72.1484 51.9867 72.2684 51.52H75.0484C74.9418 52.1733 74.6818 52.7733 74.2684 53.32C73.8551 53.8667 73.3018 54.3067 72.6084 54.64C71.9151 54.96 71.1151 55.12 70.2084 55.12ZM67.7284 48.66H72.3684C72.2751 48.02 72.0218 47.5333 71.6084 47.2C71.1951 46.8667 70.6684 46.7 70.0284 46.7C69.6284 46.7 69.2618 46.78 68.9284 46.94C68.6084 47.1 68.3418 47.3267 68.1284 47.62C67.9151 47.9 67.7818 48.2467 67.7284 48.66ZM81.5895 55.12C80.5095 55.12 79.5762 54.9067 78.7895 54.48C78.0029 54.0533 77.3962 53.4467 76.9695 52.66C76.5562 51.8733 76.3495 50.94 76.3495 49.86C76.3495 48.7933 76.5695 47.8667 77.0095 47.08C77.4495 46.2933 78.0629 45.6867 78.8495 45.26C79.6495 44.82 80.5962 44.6 81.6895 44.6C83.0895 44.6 84.2095 44.96 85.0495 45.68C85.9029 46.3867 86.4295 47.3467 86.6295 48.56H83.6895C83.5829 48.0533 83.3495 47.6533 82.9895 47.36C82.6429 47.0533 82.1962 46.9 81.6495 46.9C81.1562 46.9 80.7295 47.0267 80.3695 47.28C80.0095 47.5333 79.7295 47.88 79.5295 48.32C79.3295 48.76 79.2295 49.2733 79.2295 49.86C79.2295 50.4467 79.3295 50.9667 79.5295 51.42C79.7295 51.86 80.0095 52.2067 80.3695 52.46C80.7295 52.7 81.1562 52.82 81.6495 52.82C82.2095 52.82 82.6629 52.6667 83.0095 52.36C83.3562 52.0533 83.5829 51.64 83.6895 51.12H86.6495C86.4495 52.3467 85.9029 53.32 85.0095 54.04C84.1295 54.76 82.9895 55.12 81.5895 55.12ZM93.2163 55.12C92.0829 55.12 91.1029 54.9067 90.2763 54.48C89.4629 54.04 88.8363 53.4333 88.3963 52.66C87.9563 51.8733 87.7363 50.9467 87.7363 49.88C87.7363 48.8133 87.9496 47.8867 88.3763 47.1C88.8163 46.3 89.4363 45.6867 90.2363 45.26C91.0363 44.82 91.9629 44.6 93.0163 44.6C94.0429 44.6 94.9429 44.8067 95.7163 45.22C96.4896 45.62 97.0963 46.1867 97.5363 46.92C97.9763 47.6533 98.2029 48.5267 98.2163 49.54C98.2163 49.6867 98.2096 49.8467 98.1963 50.02C98.1829 50.18 98.1629 50.34 98.1363 50.5H90.6763C90.6763 50.5133 90.6763 50.5333 90.6763 50.56C90.6763 50.5867 90.6763 50.6133 90.6763 50.64C90.7029 51.1333 90.8163 51.56 91.0163 51.92C91.2296 52.2667 91.5096 52.5333 91.8563 52.72C92.2163 52.8933 92.6296 52.98 93.0963 52.98C93.6696 52.98 94.1429 52.8533 94.5163 52.6C94.9029 52.3467 95.1563 51.9867 95.2763 51.52H98.0563C97.9496 52.1733 97.6896 52.7733 97.2763 53.32C96.8629 53.8667 96.3096 54.3067 95.6163 54.64C94.9229 54.96 94.1229 55.12 93.2163 55.12ZM90.7363 48.66H95.3763C95.2829 48.02 95.0296 47.5333 94.6163 47.2C94.2029 46.8667 93.6763 46.7 93.0362 46.7C92.6362 46.7 92.2696 46.78 91.9363 46.94C91.6163 47.1 91.3496 47.3267 91.1363 47.62C90.9229 47.9 90.7896 48.2467 90.7363 48.66ZM99.7573 44.72H102.597V55H99.7573V44.72ZM101.177 43.62C100.724 43.62 100.337 43.4667 100.017 43.16C99.6973 42.8533 99.5373 42.4733 99.5373 42.02C99.5373 41.5533 99.6973 41.1733 100.017 40.88C100.337 40.5733 100.724 40.42 101.177 40.42C101.644 40.42 102.031 40.5733 102.337 40.88C102.657 41.1733 102.817 41.5533 102.817 42.02C102.817 42.4733 102.657 42.8533 102.337 43.16C102.031 43.4667 101.644 43.62 101.177 43.62ZM110.443 44.6C111.376 44.5867 112.196 44.8 112.903 45.24C113.623 45.6667 114.189 46.28 114.603 47.08C115.016 47.8667 115.223 48.8 115.223 49.88C115.223 50.9467 115.016 51.8733 114.603 52.66C114.189 53.4333 113.629 54.04 112.923 54.48C112.216 54.9067 111.396 55.12 110.463 55.12C109.569 55.12 108.829 54.92 108.243 54.52C107.656 54.1067 107.216 53.6 106.923 53L107.363 52.34V59H104.543V44.72H107.003L107.543 47.46L106.843 46.84C107.149 46.2267 107.596 45.7 108.183 45.26C108.769 44.82 109.523 44.6 110.443 44.6ZM109.823 46.9C109.316 46.9 108.876 47.0267 108.503 47.28C108.129 47.52 107.836 47.86 107.623 48.3C107.423 48.74 107.323 49.2533 107.323 49.84C107.323 50.4133 107.423 50.9267 107.623 51.38C107.836 51.8333 108.129 52.1867 108.503 52.44C108.876 52.6933 109.316 52.82 109.823 52.82C110.343 52.82 110.789 52.6933 111.163 52.44C111.549 52.1867 111.843 51.84 112.043 51.4C112.256 50.9467 112.363 50.4267 112.363 49.84C112.363 49.2533 112.256 48.74 112.043 48.3C111.843 47.86 111.549 47.52 111.163 47.28C110.789 47.0267 110.343 46.9 109.823 46.9ZM120.273 55C119.3 55 118.567 54.7533 118.073 54.26C117.58 53.7667 117.333 53.0333 117.333 52.06V47.1H115.633V44.72H117.333V41.84H120.153V44.72H122.513V47.1H120.153V51.6C120.153 51.96 120.227 52.22 120.373 52.38C120.533 52.54 120.8 52.62 121.173 52.62H122.573V55H120.273Z" fill="#EAECF0"/>
<path d="M476.999 62.3337C469.093 62.3337 462.666 55.907 462.666 48.0003C462.666 40.0937 469.093 33.667 476.999 33.667C484.906 33.667 491.333 40.0937 491.333 48.0003C491.333 55.907 484.906 62.3337 476.999 62.3337ZM476.999 35.667C470.199 35.667 464.666 41.2003 464.666 48.0003C464.666 54.8003 470.199 60.3337 476.999 60.3337C483.799 60.3337 489.333 54.8003 489.333 48.0003C489.333 41.2003 483.799 35.667 476.999 35.667Z" fill="#F0F3F8"/>
<path d="M473.227 52.7738C472.974 52.7738 472.72 52.6805 472.52 52.4805C472.134 52.0938 472.134 51.4538 472.52 51.0671L480.067 43.5205C480.454 43.1338 481.094 43.1338 481.48 43.5205C481.867 43.9071 481.867 44.5471 481.48 44.9338L473.934 52.4805C473.747 52.6805 473.48 52.7738 473.227 52.7738Z" fill="#F0F3F8"/>
<path d="M480.774 52.7738C480.52 52.7738 480.267 52.6805 480.067 52.4805L472.52 44.9338C472.134 44.5471 472.134 43.9071 472.52 43.5205C472.907 43.1338 473.547 43.1338 473.934 43.5205L481.48 51.0671C481.867 51.4538 481.867 52.0938 481.48 52.4805C481.28 52.6805 481.027 52.7738 480.774 52.7738Z" fill="#F0F3F8"/>
<path d="M64.1605 107.62C64.1305 107.62 64.1105 107.62 64.0805 107.62C64.0305 107.61 63.9605 107.61 63.9005 107.62C61.0005 107.53 58.8105 105.25 58.8105 102.44C58.8105 99.58 61.1405 97.25 64.0005 97.25C66.8605 97.25 69.1905 99.58 69.1905 102.44C69.1805 105.25 66.9805 107.53 64.1905 107.62C64.1805 107.62 64.1705 107.62 64.1605 107.62ZM64.0005 98.75C61.9705 98.75 60.3105 100.41 60.3105 102.44C60.3105 104.44 61.8705 106.05 63.8605 106.12C63.9105 106.11 64.0505 106.11 64.1805 106.12C66.1405 106.03 67.6805 104.42 67.6905 102.44C67.6905 100.41 66.0305 98.75 64.0005 98.75Z" fill="#E7EAF1"/>
<path d="M64.1696 118.55C62.2096 118.55 60.2396 118.05 58.7496 117.05C57.3596 116.13 56.5996 114.87 56.5996 113.5C56.5996 112.13 57.3596 110.86 58.7496 109.93C61.7496 107.94 66.6096 107.94 69.5896 109.93C70.9696 110.85 71.7396 112.11 71.7396 113.48C71.7396 114.85 70.9796 116.12 69.5896 117.05C68.0896 118.05 66.1296 118.55 64.1696 118.55ZM59.5796 111.19C58.6196 111.83 58.0996 112.65 58.0996 113.51C58.0996 114.36 58.6296 115.18 59.5796 115.81C62.0696 117.48 66.2696 117.48 68.7596 115.81C69.7196 115.17 70.2396 114.35 70.2396 113.49C70.2396 112.64 69.7096 111.82 68.7596 111.19C66.2696 109.53 62.0696 109.53 59.5796 111.19Z" fill="#E7EAF1"/>
<path d="M91.36 116.12C90 116.12 88.8267 115.827 87.84 115.24C86.8533 114.64 86.0867 113.807 85.54 112.74C85.0067 111.673 84.74 110.427 84.74 109C84.74 107.573 85.0133 106.327 85.56 105.26C86.12 104.193 86.9067 103.367 87.92 102.78C88.9333 102.18 90.1267 101.88 91.5 101.88C92.58 101.88 93.54 102.08 94.38 102.48C95.22 102.88 95.9067 103.447 96.44 104.18C96.9733 104.913 97.3133 105.773 97.46 106.76H95.08C94.8533 105.88 94.42 105.187 93.78 104.68C93.14 104.16 92.3467 103.9 91.4 103.9C90.52 103.9 89.7533 104.12 89.1 104.56C88.46 104.987 87.9667 105.587 87.62 106.36C87.2733 107.12 87.1 108 87.1 109C87.1 109.987 87.2667 110.867 87.6 111.64C87.9467 112.413 88.4333 113.02 89.06 113.46C89.7 113.887 90.46 114.1 91.34 114.1C92.3133 114.1 93.12 113.847 93.76 113.34C94.4133 112.82 94.8467 112.12 95.06 111.24H97.44C97.2933 112.213 96.9467 113.073 96.4 113.82C95.8533 114.553 95.1467 115.12 94.28 115.52C93.4133 115.92 92.44 116.12 91.36 116.12ZM98.9625 111.46V105.76H101.123V111.22C101.123 112.22 101.323 112.973 101.723 113.48C102.123 113.987 102.716 114.24 103.503 114.24C104.049 114.24 104.516 114.107 104.903 113.84C105.303 113.573 105.609 113.193 105.823 112.7C106.036 112.193 106.143 111.587 106.143 110.88V105.76H108.303V116H106.403L105.983 113.7L106.523 114.22C106.203 114.713 105.769 115.153 105.223 115.54C104.689 115.927 103.949 116.12 103.003 116.12C102.456 116.12 101.936 116.04 101.443 115.88C100.963 115.72 100.536 115.46 100.163 115.1C99.7892 114.74 99.4958 114.26 99.2825 113.66C99.0692 113.06 98.9625 112.327 98.9625 111.46ZM114.671 116.12C113.298 116.12 112.184 115.813 111.331 115.2C110.478 114.587 110.031 113.727 109.991 112.62H112.111C112.151 113.153 112.391 113.593 112.831 113.94C113.284 114.273 113.898 114.44 114.671 114.44C115.124 114.44 115.511 114.387 115.831 114.28C116.164 114.173 116.424 114.02 116.611 113.82C116.798 113.607 116.891 113.367 116.891 113.1C116.891 112.727 116.791 112.46 116.591 112.3C116.391 112.127 116.104 112.007 115.731 111.94C115.358 111.86 114.904 111.787 114.371 111.72C113.784 111.653 113.238 111.567 112.731 111.46C112.238 111.34 111.798 111.18 111.411 110.98C111.038 110.767 110.738 110.487 110.511 110.14C110.298 109.793 110.191 109.353 110.191 108.82C110.191 108.167 110.371 107.6 110.731 107.12C111.091 106.64 111.584 106.273 112.211 106.02C112.851 105.753 113.578 105.627 114.391 105.64C115.644 105.64 116.678 105.92 117.491 106.48C118.318 107.04 118.764 107.847 118.831 108.9H116.711C116.658 108.433 116.424 108.053 116.011 107.76C115.611 107.453 115.084 107.3 114.431 107.3C113.791 107.3 113.278 107.42 112.891 107.66C112.504 107.9 112.311 108.227 112.311 108.64C112.311 108.96 112.411 109.2 112.611 109.36C112.811 109.52 113.098 109.633 113.471 109.7C113.844 109.767 114.278 109.827 114.771 109.88C115.558 109.973 116.271 110.113 116.911 110.3C117.551 110.473 118.058 110.767 118.431 111.18C118.818 111.58 119.011 112.16 119.011 112.92C119.011 113.573 118.818 114.14 118.431 114.62C118.058 115.1 117.544 115.473 116.891 115.74C116.238 115.993 115.498 116.12 114.671 116.12ZM124.225 116C123.252 116 122.538 115.773 122.085 115.32C121.645 114.853 121.425 114.153 121.425 113.22V107.66H119.645V105.76H121.425V102.9H123.605V105.76H126.105V107.66H123.605V113C123.605 113.4 123.685 113.687 123.845 113.86C124.005 114.02 124.292 114.1 124.705 114.1H126.225V116H124.225ZM132.048 114.28C132.662 114.28 133.188 114.133 133.628 113.84C134.082 113.547 134.435 113.147 134.688 112.64C134.942 112.12 135.068 111.533 135.068 110.88C135.068 110.213 134.942 109.627 134.688 109.12C134.435 108.613 134.082 108.213 133.628 107.92C133.188 107.627 132.662 107.48 132.048 107.48C131.435 107.48 130.902 107.627 130.448 107.92C130.008 108.213 129.662 108.613 129.408 109.12C129.168 109.627 129.048 110.213 129.048 110.88C129.048 111.533 129.168 112.12 129.408 112.64C129.662 113.147 130.008 113.547 130.448 113.84C130.902 114.133 131.435 114.28 132.048 114.28ZM132.048 116.12C131.022 116.12 130.108 115.9 129.308 115.46C128.522 115.02 127.908 114.407 127.468 113.62C127.042 112.833 126.828 111.92 126.828 110.88C126.828 109.84 127.042 108.927 127.468 108.14C127.908 107.353 128.522 106.74 129.308 106.3C130.108 105.86 131.022 105.64 132.048 105.64C133.088 105.64 134.002 105.86 134.788 106.3C135.575 106.74 136.182 107.353 136.608 108.14C137.048 108.927 137.268 109.84 137.268 110.88C137.268 111.92 137.048 112.833 136.608 113.62C136.182 114.407 135.575 115.02 134.788 115.46C134.002 115.9 133.088 116.12 132.048 116.12ZM139.005 116V105.76H140.885L141.305 108.1L140.805 107.58C141.005 107.26 141.239 106.953 141.505 106.66C141.785 106.367 142.139 106.127 142.565 105.94C142.992 105.74 143.512 105.64 144.125 105.64C144.645 105.64 145.139 105.733 145.605 105.92C146.072 106.093 146.472 106.373 146.805 106.76C147.152 107.147 147.399 107.653 147.545 108.28L146.985 108.08C147.292 107.36 147.752 106.773 148.365 106.32C148.992 105.867 149.799 105.64 150.785 105.64C151.492 105.64 152.139 105.787 152.725 106.08C153.312 106.373 153.772 106.847 154.105 107.5C154.452 108.153 154.625 109.02 154.625 110.1V116H152.465V110.24C152.465 109.347 152.285 108.667 151.925 108.2C151.565 107.733 151.032 107.5 150.325 107.5C149.579 107.5 148.985 107.767 148.545 108.3C148.119 108.82 147.905 109.54 147.905 110.46V116H145.725V110.24C145.725 109.347 145.545 108.667 145.185 108.2C144.825 107.733 144.285 107.5 143.565 107.5C143.072 107.5 142.645 107.627 142.285 107.88C141.939 108.12 141.665 108.473 141.465 108.94C141.265 109.393 141.165 109.92 141.165 110.52V116H139.005ZM161.248 116.12C160.181 116.12 159.255 115.907 158.468 115.48C157.681 115.04 157.075 114.427 156.648 113.64C156.221 112.853 156.008 111.94 156.008 110.9C156.008 109.847 156.215 108.927 156.628 108.14C157.055 107.353 157.648 106.74 158.408 106.3C159.168 105.86 160.048 105.64 161.048 105.64C162.035 105.64 162.895 105.84 163.628 106.24C164.375 106.627 164.955 107.187 165.368 107.92C165.795 108.653 166.021 109.52 166.048 110.52C166.048 110.653 166.041 110.793 166.028 110.94C166.015 111.073 166.001 111.207 165.988 111.34H158.268C158.268 111.353 158.268 111.373 158.268 111.4C158.268 111.427 158.268 111.453 158.268 111.48C158.295 112.053 158.421 112.56 158.648 113C158.888 113.427 159.221 113.76 159.648 114C160.075 114.24 160.568 114.36 161.128 114.36C161.781 114.36 162.335 114.2 162.788 113.88C163.255 113.56 163.561 113.12 163.708 112.56H165.868C165.748 113.227 165.481 113.833 165.068 114.38C164.668 114.913 164.141 115.34 163.488 115.66C162.848 115.967 162.101 116.12 161.248 116.12ZM158.348 109.76H163.808C163.715 109 163.421 108.413 162.928 108C162.448 107.587 161.828 107.38 161.068 107.38C160.615 107.38 160.188 107.48 159.788 107.68C159.401 107.867 159.075 108.14 158.808 108.5C158.555 108.847 158.401 109.267 158.348 109.76ZM167.794 105.76H169.714L170.114 108.3L169.674 107.82C169.861 107.46 170.074 107.127 170.314 106.82C170.568 106.5 170.908 106.247 171.334 106.06C171.761 105.86 172.308 105.76 172.974 105.76H173.454V107.78H172.494C171.854 107.78 171.348 107.927 170.974 108.22C170.601 108.513 170.334 108.893 170.174 109.36C170.028 109.827 169.954 110.327 169.954 110.86V116H167.794V105.76ZM187.684 102H189.844V116H187.964L187.544 113.46L188.024 113.96C187.717 114.52 187.264 115.02 186.664 115.46C186.077 115.9 185.31 116.12 184.364 116.12C183.444 116.12 182.617 115.913 181.884 115.5C181.15 115.087 180.57 114.487 180.144 113.7C179.73 112.913 179.524 111.973 179.524 110.88C179.524 109.827 179.73 108.907 180.144 108.12C180.57 107.333 181.15 106.727 181.884 106.3C182.617 105.86 183.444 105.64 184.364 105.64C185.297 105.64 186.064 105.84 186.664 106.24C187.264 106.627 187.71 107.113 188.004 107.7L187.684 108.2V102ZM184.724 107.48C184.124 107.48 183.597 107.627 183.144 107.92C182.704 108.2 182.357 108.593 182.104 109.1C181.864 109.607 181.744 110.2 181.744 110.88C181.744 111.547 181.864 112.14 182.104 112.66C182.357 113.167 182.704 113.567 183.144 113.86C183.597 114.153 184.124 114.3 184.724 114.3C185.337 114.3 185.864 114.153 186.304 113.86C186.757 113.567 187.104 113.167 187.344 112.66C187.584 112.153 187.704 111.573 187.704 110.92C187.704 110.24 187.584 109.64 187.344 109.12C187.104 108.6 186.757 108.2 186.304 107.92C185.864 107.627 185.337 107.48 184.724 107.48ZM196.815 116.12C195.748 116.12 194.821 115.907 194.035 115.48C193.248 115.04 192.641 114.427 192.215 113.64C191.788 112.853 191.575 111.94 191.575 110.9C191.575 109.847 191.781 108.927 192.195 108.14C192.621 107.353 193.215 106.74 193.975 106.3C194.735 105.86 195.615 105.64 196.615 105.64C197.601 105.64 198.461 105.84 199.195 106.24C199.941 106.627 200.521 107.187 200.935 107.92C201.361 108.653 201.588 109.52 201.615 110.52C201.615 110.653 201.608 110.793 201.595 110.94C201.581 111.073 201.568 111.207 201.555 111.34H193.835C193.835 111.353 193.835 111.373 193.835 111.4C193.835 111.427 193.835 111.453 193.835 111.48C193.861 112.053 193.988 112.56 194.215 113C194.455 113.427 194.788 113.76 195.215 114C195.641 114.24 196.135 114.36 196.695 114.36C197.348 114.36 197.901 114.2 198.355 113.88C198.821 113.56 199.128 113.12 199.275 112.56H201.435C201.315 113.227 201.048 113.833 200.635 114.38C200.235 114.913 199.708 115.34 199.055 115.66C198.415 115.967 197.668 116.12 196.815 116.12ZM193.915 109.76H199.375C199.281 109 198.988 108.413 198.495 108C198.015 107.587 197.395 107.38 196.635 107.38C196.181 107.38 195.755 107.48 195.355 107.68C194.968 107.867 194.641 108.14 194.375 108.5C194.121 108.847 193.968 109.267 193.915 109.76ZM206.705 116C205.732 116 205.019 115.773 204.565 115.32C204.125 114.853 203.905 114.153 203.905 113.22V107.66H202.125V105.76H203.905V102.9H206.085V105.76H208.585V107.66H206.085V113C206.085 113.4 206.165 113.687 206.325 113.86C206.485 114.02 206.772 114.1 207.185 114.1H208.705V116H206.705ZM209.687 108.88C209.753 108.213 209.98 107.64 210.367 107.16C210.767 106.68 211.287 106.307 211.927 106.04C212.58 105.773 213.34 105.64 214.207 105.64C215.567 105.64 216.62 105.96 217.367 106.6C218.113 107.227 218.487 108.147 218.487 109.36V113.46C218.487 113.713 218.54 113.887 218.647 113.98C218.753 114.073 218.92 114.12 219.147 114.12H219.587V116H218.447C217.713 116 217.213 115.84 216.947 115.52C216.68 115.2 216.553 114.767 216.567 114.22L216.587 113.48L216.887 113.8C216.567 114.467 216.113 115.02 215.527 115.46C214.94 115.9 214.16 116.12 213.187 116.12C212.44 116.12 211.78 116.007 211.207 115.78C210.633 115.54 210.187 115.193 209.867 114.74C209.547 114.287 209.387 113.747 209.387 113.12C209.387 112.067 209.76 111.26 210.507 110.7C211.253 110.127 212.34 109.84 213.767 109.84H216.347V109.22C216.347 108.647 216.147 108.2 215.747 107.88C215.36 107.547 214.813 107.38 214.107 107.38C213.467 107.38 212.94 107.52 212.527 107.8C212.127 108.067 211.887 108.427 211.807 108.88H209.687ZM216.347 111.44H213.667C213 111.44 212.487 111.567 212.127 111.82C211.767 112.073 211.587 112.46 211.587 112.98C211.587 113.407 211.753 113.76 212.087 114.04C212.433 114.307 212.9 114.44 213.487 114.44C214.087 114.44 214.593 114.327 215.007 114.1C215.433 113.873 215.76 113.567 215.987 113.18C216.227 112.78 216.347 112.32 216.347 111.8V111.44ZM220.763 105.76H222.923V116H220.763V105.76ZM221.863 104.32C221.503 104.32 221.19 104.2 220.923 103.96C220.67 103.707 220.543 103.393 220.543 103.02C220.543 102.647 220.67 102.34 220.923 102.1C221.19 101.847 221.503 101.72 221.863 101.72C222.236 101.72 222.55 101.847 222.803 102.1C223.056 102.34 223.183 102.647 223.183 103.02C223.183 103.393 223.056 103.707 222.803 103.96C222.55 104.2 222.236 104.32 221.863 104.32ZM225.04 102H227.2V116H225.04V102ZM233.558 116.12C232.184 116.12 231.071 115.813 230.218 115.2C229.364 114.587 228.918 113.727 228.878 112.62H230.998C231.038 113.153 231.278 113.593 231.718 113.94C232.171 114.273 232.784 114.44 233.558 114.44C234.011 114.44 234.398 114.387 234.718 114.28C235.051 114.173 235.311 114.02 235.498 113.82C235.684 113.607 235.778 113.367 235.778 113.1C235.778 112.727 235.678 112.46 235.478 112.3C235.278 112.127 234.991 112.007 234.618 111.94C234.244 111.86 233.791 111.787 233.258 111.72C232.671 111.653 232.124 111.567 231.618 111.46C231.124 111.34 230.684 111.18 230.298 110.98C229.924 110.767 229.624 110.487 229.398 110.14C229.184 109.793 229.078 109.353 229.078 108.82C229.078 108.167 229.258 107.6 229.618 107.12C229.978 106.64 230.471 106.273 231.098 106.02C231.738 105.753 232.464 105.627 233.278 105.64C234.531 105.64 235.564 105.92 236.378 106.48C237.204 107.04 237.651 107.847 237.718 108.9H235.598C235.544 108.433 235.311 108.053 234.898 107.76C234.498 107.453 233.971 107.3 233.318 107.3C232.678 107.3 232.164 107.42 231.778 107.66C231.391 107.9 231.198 108.227 231.198 108.64C231.198 108.96 231.298 109.2 231.498 109.36C231.698 109.52 231.984 109.633 232.358 109.7C232.731 109.767 233.164 109.827 233.658 109.88C234.444 109.973 235.158 110.113 235.798 110.3C236.438 110.473 236.944 110.767 237.318 111.18C237.704 111.58 237.898 112.16 237.898 112.92C237.898 113.573 237.704 114.14 237.318 114.62C236.944 115.1 236.431 115.473 235.778 115.74C235.124 115.993 234.384 116.12 233.558 116.12Z" fill="#F0F3F8"/>
<rect x="52" y="142" width="441" height="159" rx="20" fill="#F9FAFB"/>
<path d="M73.088 170.8H80.048V172.08H74.48V175.824H79.088V177.104H74.48V182H73.088V170.8ZM80.7528 178.384V173.84H82.0648V178.304C82.0648 179.147 82.2461 179.792 82.6088 180.24C82.9821 180.677 83.5101 180.896 84.1927 180.896C84.6941 180.896 85.1208 180.779 85.4728 180.544C85.8248 180.299 86.0968 179.952 86.2888 179.504C86.4808 179.056 86.5768 178.528 86.5768 177.92V173.84H87.8888V182H86.7528L86.4808 180.336L86.7528 180.672C86.5288 181.013 86.1981 181.339 85.7608 181.648C85.3234 181.947 84.7261 182.096 83.9688 182.096C83.5208 182.096 83.0994 182.032 82.7048 181.904C82.3208 181.765 81.9794 181.552 81.6808 181.264C81.3928 180.965 81.1634 180.581 80.9928 180.112C80.8328 179.632 80.7528 179.056 80.7528 178.384ZM89.6773 170.8H90.9893V182H89.6773V170.8ZM92.7866 170.8H94.0986V182H92.7866V170.8ZM100.084 173.84H101.22L101.492 175.536L101.22 175.2C101.444 174.848 101.78 174.517 102.228 174.208C102.686 173.899 103.305 173.744 104.084 173.744C104.702 173.744 105.257 173.867 105.748 174.112C106.249 174.357 106.644 174.752 106.932 175.296C107.23 175.829 107.38 176.549 107.38 177.456V182H106.068V177.536C106.068 176.683 105.876 176.037 105.492 175.6C105.118 175.163 104.574 174.944 103.86 174.944C103.348 174.944 102.905 175.067 102.532 175.312C102.169 175.547 101.886 175.888 101.684 176.336C101.492 176.784 101.396 177.312 101.396 177.92V182H100.084V173.84ZM109.004 176.288C109.068 175.755 109.25 175.301 109.548 174.928C109.847 174.544 110.242 174.251 110.732 174.048C111.234 173.845 111.81 173.744 112.46 173.744C113.506 173.744 114.311 174 114.876 174.512C115.452 175.013 115.74 175.739 115.74 176.688V180.256C115.74 180.469 115.783 180.613 115.868 180.688C115.954 180.763 116.087 180.8 116.268 180.8H116.684V182H115.964C115.378 182 114.978 181.872 114.764 181.616C114.562 181.349 114.471 180.987 114.492 180.528L114.508 180.256L114.668 180.448C114.423 180.875 114.071 181.259 113.612 181.6C113.164 181.931 112.546 182.096 111.756 182.096C111.159 182.096 110.631 182 110.172 181.808C109.724 181.616 109.372 181.344 109.116 180.992C108.871 180.629 108.748 180.203 108.748 179.712C108.748 178.891 109.026 178.261 109.58 177.824C110.146 177.387 110.962 177.168 112.028 177.168H114.428V176.608C114.428 176.075 114.247 175.659 113.884 175.36C113.532 175.061 113.036 174.912 112.396 174.912C111.82 174.912 111.351 175.04 110.988 175.296C110.626 175.541 110.402 175.872 110.316 176.288H109.004ZM114.428 178.272H111.9C111.314 178.272 110.86 178.384 110.54 178.608C110.231 178.821 110.076 179.163 110.076 179.632C110.076 180.027 110.236 180.352 110.556 180.608C110.876 180.853 111.308 180.976 111.852 180.976C112.396 180.976 112.86 180.88 113.244 180.688C113.628 180.485 113.922 180.213 114.124 179.872C114.327 179.52 114.428 179.12 114.428 178.672V178.272ZM117.693 182V173.84H118.829L119.101 175.536L118.845 175.2C118.984 174.987 119.154 174.768 119.357 174.544C119.57 174.32 119.842 174.133 120.173 173.984C120.504 173.824 120.909 173.744 121.389 173.744C121.816 173.744 122.21 173.819 122.573 173.968C122.946 174.107 123.266 174.32 123.533 174.608C123.8 174.896 123.992 175.264 124.109 175.712L123.805 175.616C124.04 175.093 124.392 174.651 124.861 174.288C125.341 173.925 125.986 173.744 126.797 173.744C127.362 173.744 127.88 173.861 128.349 174.096C128.818 174.331 129.192 174.709 129.469 175.232C129.746 175.744 129.885 176.432 129.885 177.296V182H128.573V177.376C128.573 176.576 128.402 175.973 128.061 175.568C127.73 175.152 127.256 174.944 126.637 174.944C125.954 174.944 125.416 175.184 125.021 175.664C124.637 176.144 124.445 176.8 124.445 177.632V182H123.133V177.376C123.133 176.576 122.962 175.973 122.621 175.568C122.28 175.152 121.794 174.944 121.165 174.944C120.717 174.944 120.333 175.061 120.013 175.296C119.693 175.52 119.442 175.84 119.261 176.256C119.09 176.672 119.005 177.152 119.005 177.696V182H117.693ZM135.172 182.096C134.361 182.096 133.652 181.92 133.044 181.568C132.436 181.216 131.961 180.731 131.62 180.112C131.289 179.483 131.124 178.752 131.124 177.92C131.124 177.088 131.284 176.363 131.604 175.744C131.934 175.115 132.388 174.624 132.964 174.272C133.55 173.92 134.228 173.744 134.996 173.744C135.764 173.744 136.43 173.899 136.996 174.208C137.572 174.517 138.02 174.96 138.34 175.536C138.67 176.112 138.846 176.805 138.868 177.616C138.868 177.701 138.862 177.792 138.852 177.888C138.852 177.984 138.846 178.08 138.836 178.176H132.5C132.5 178.187 132.5 178.203 132.5 178.224C132.5 178.245 132.5 178.267 132.5 178.288C132.521 178.8 132.633 179.259 132.836 179.664C133.049 180.059 133.348 180.368 133.732 180.592C134.116 180.816 134.564 180.928 135.076 180.928C135.652 180.928 136.148 180.784 136.564 180.496C136.98 180.197 137.257 179.787 137.396 179.264H138.724C138.617 179.808 138.404 180.293 138.084 180.72C137.764 181.147 137.353 181.483 136.852 181.728C136.361 181.973 135.801 182.096 135.172 182.096ZM132.58 177.088H137.46C137.396 176.384 137.14 175.845 136.692 175.472C136.254 175.088 135.694 174.896 135.012 174.896C134.617 174.896 134.238 174.987 133.876 175.168C133.524 175.349 133.23 175.605 132.996 175.936C132.761 176.256 132.622 176.64 132.58 177.088Z" fill="#636C71"/>
<path d="M380.032 170.704C381.109 170.704 382.053 170.949 382.864 171.44C383.685 171.931 384.325 172.608 384.784 173.472C385.243 174.325 385.472 175.301 385.472 176.4C385.472 177.499 385.243 178.48 384.784 179.344C384.325 180.197 383.685 180.869 382.864 181.36C382.053 181.851 381.109 182.096 380.032 182.096C378.965 182.096 378.021 181.851 377.2 181.36C376.389 180.869 375.749 180.197 375.28 179.344C374.821 178.48 374.592 177.499 374.592 176.4C374.592 175.301 374.821 174.325 375.28 173.472C375.749 172.608 376.389 171.931 377.2 171.44C378.021 170.949 378.965 170.704 380.032 170.704ZM380.032 172.32C379.328 172.32 378.709 172.496 378.176 172.848C377.643 173.2 377.227 173.68 376.928 174.288C376.629 174.896 376.48 175.6 376.48 176.4C376.48 177.189 376.629 177.893 376.928 178.512C377.227 179.12 377.643 179.6 378.176 179.952C378.709 180.304 379.328 180.48 380.032 180.48C380.747 180.48 381.371 180.304 381.904 179.952C382.437 179.6 382.848 179.12 383.136 178.512C383.435 177.893 383.584 177.189 383.584 176.4C383.584 175.6 383.435 174.896 383.136 174.288C382.848 173.68 382.437 173.2 381.904 172.848C381.371 172.496 380.747 172.32 380.032 172.32ZM386.911 170.8H388.639V182H386.911V170.8ZM390.332 173.808H392.06V182H390.332V173.808ZM391.212 172.656C390.924 172.656 390.674 172.56 390.46 172.368C390.258 172.165 390.156 171.915 390.156 171.616C390.156 171.317 390.258 171.072 390.46 170.88C390.674 170.677 390.924 170.576 391.212 170.576C391.511 170.576 391.762 170.677 391.964 170.88C392.167 171.072 392.268 171.317 392.268 171.616C392.268 171.915 392.167 172.165 391.964 172.368C391.762 172.56 391.511 172.656 391.212 172.656ZM392.938 173.808H394.794L397.05 180.144L399.274 173.808H401.098L398.074 182H395.962L392.938 173.808ZM401.973 173.808H403.701V182H401.973V173.808ZM402.853 172.656C402.565 172.656 402.314 172.56 402.101 172.368C401.898 172.165 401.797 171.915 401.797 171.616C401.797 171.317 401.898 171.072 402.101 170.88C402.314 170.677 402.565 170.576 402.853 170.576C403.152 170.576 403.402 170.677 403.605 170.88C403.808 171.072 403.909 171.317 403.909 171.616C403.909 171.915 403.808 172.165 403.605 172.368C403.402 172.56 403.152 172.656 402.853 172.656ZM405.315 176.304C405.368 175.771 405.55 175.312 405.859 174.928C406.179 174.544 406.595 174.245 407.107 174.032C407.63 173.819 408.238 173.712 408.931 173.712C410.019 173.712 410.862 173.968 411.459 174.48C412.056 174.981 412.355 175.717 412.355 176.688V179.968C412.355 180.171 412.398 180.309 412.483 180.384C412.568 180.459 412.702 180.496 412.883 180.496H413.235V182H412.323C411.736 182 411.336 181.872 411.123 181.616C410.91 181.36 410.808 181.013 410.819 180.576L410.835 179.984L411.075 180.24C410.819 180.773 410.456 181.216 409.987 181.568C409.518 181.92 408.894 182.096 408.115 182.096C407.518 182.096 406.99 182.005 406.531 181.824C406.072 181.632 405.715 181.355 405.459 180.992C405.203 180.629 405.075 180.197 405.075 179.696C405.075 178.853 405.374 178.208 405.971 177.76C406.568 177.301 407.438 177.072 408.579 177.072H410.643V176.576C410.643 176.117 410.483 175.76 410.163 175.504C409.854 175.237 409.416 175.104 408.851 175.104C408.339 175.104 407.918 175.216 407.587 175.44C407.267 175.653 407.075 175.941 407.011 176.304H405.315ZM410.643 178.352H408.499C407.966 178.352 407.555 178.453 407.267 178.656C406.979 178.859 406.835 179.168 406.835 179.584C406.835 179.925 406.968 180.208 407.235 180.432C407.512 180.645 407.886 180.752 408.355 180.752C408.835 180.752 409.24 180.661 409.571 180.48C409.912 180.299 410.174 180.053 410.355 179.744C410.547 179.424 410.643 179.056 410.643 178.64V178.352ZM418.446 170.8H420.83L424.414 179.616L427.934 170.8H430.27V182H428.494V173.76L425.134 182H423.582L420.222 173.76V182H418.446V170.8ZM432.065 176.304C432.118 175.771 432.3 175.312 432.609 174.928C432.929 174.544 433.345 174.245 433.857 174.032C434.38 173.819 434.988 173.712 435.681 173.712C436.769 173.712 437.612 173.968 438.209 174.48C438.806 174.981 439.105 175.717 439.105 176.688V179.968C439.105 180.171 439.148 180.309 439.233 180.384C439.318 180.459 439.452 180.496 439.633 180.496H439.985V182H439.073C438.486 182 438.086 181.872 437.873 181.616C437.66 181.36 437.558 181.013 437.569 180.576L437.585 179.984L437.825 180.24C437.569 180.773 437.206 181.216 436.737 181.568C436.268 181.92 435.644 182.096 434.865 182.096C434.268 182.096 433.74 182.005 433.281 181.824C432.822 181.632 432.465 181.355 432.209 180.992C431.953 180.629 431.825 180.197 431.825 179.696C431.825 178.853 432.124 178.208 432.721 177.76C433.318 177.301 434.188 177.072 435.329 177.072H437.393V176.576C437.393 176.117 437.233 175.76 436.913 175.504C436.604 175.237 436.166 175.104 435.601 175.104C435.089 175.104 434.668 175.216 434.337 175.44C434.017 175.653 433.825 175.941 433.761 176.304H432.065ZM437.393 178.352H435.249C434.716 178.352 434.305 178.453 434.017 178.656C433.729 178.859 433.585 179.168 433.585 179.584C433.585 179.925 433.718 180.208 433.985 180.432C434.262 180.645 434.636 180.752 435.105 180.752C435.585 180.752 435.99 180.661 436.321 180.48C436.662 180.299 436.924 180.053 437.105 179.744C437.297 179.424 437.393 179.056 437.393 178.64V178.352ZM440.926 173.808H442.462L442.782 175.84L442.43 175.456C442.579 175.168 442.75 174.901 442.942 174.656C443.145 174.4 443.417 174.197 443.758 174.048C444.099 173.888 444.537 173.808 445.07 173.808H445.454V175.424H444.686C444.174 175.424 443.769 175.541 443.47 175.776C443.171 176.011 442.958 176.315 442.83 176.688C442.713 177.061 442.654 177.461 442.654 177.888V182H440.926V173.808ZM449.508 182C448.729 182 448.159 181.819 447.796 181.456C447.444 181.083 447.268 180.523 447.268 179.776V175.328H445.844V173.808H447.268V171.52H449.012V173.808H451.012V175.328H449.012V179.6C449.012 179.92 449.076 180.149 449.204 180.288C449.332 180.416 449.561 180.48 449.892 180.48H451.108V182H449.508ZM452.207 173.808H453.935V182H452.207V173.808ZM453.087 172.656C452.799 172.656 452.549 172.56 452.335 172.368C452.133 172.165 452.031 171.915 452.031 171.616C452.031 171.317 452.133 171.072 452.335 170.88C452.549 170.677 452.799 170.576 453.087 170.576C453.386 170.576 453.637 170.677 453.839 170.88C454.042 171.072 454.143 171.317 454.143 171.616C454.143 171.915 454.042 172.165 453.839 172.368C453.637 172.56 453.386 172.656 453.087 172.656ZM455.629 173.808H457.133L457.469 175.68L457.053 175.264C457.309 174.869 457.656 174.512 458.093 174.192C458.541 173.872 459.16 173.712 459.949 173.712C460.557 173.712 461.107 173.835 461.597 174.08C462.099 174.315 462.499 174.704 462.797 175.248C463.096 175.792 463.245 176.523 463.245 177.44V182H461.501V177.584C461.501 176.805 461.336 176.213 461.005 175.808C460.685 175.403 460.2 175.2 459.549 175.2C459.091 175.2 458.696 175.307 458.365 175.52C458.045 175.733 457.795 176.043 457.613 176.448C457.443 176.843 457.357 177.317 457.357 177.872V182H455.629V173.808ZM468.209 182.096C467.11 182.096 466.219 181.851 465.537 181.36C464.854 180.869 464.497 180.181 464.465 179.296H466.161C466.193 179.723 466.385 180.075 466.737 180.352C467.099 180.619 467.59 180.752 468.209 180.752C468.571 180.752 468.881 180.709 469.137 180.624C469.403 180.539 469.611 180.416 469.761 180.256C469.91 180.085 469.985 179.893 469.985 179.68C469.985 179.381 469.905 179.168 469.745 179.04C469.585 178.901 469.355 178.805 469.057 178.752C468.758 178.688 468.395 178.629 467.969 178.576C467.499 178.523 467.062 178.453 466.657 178.368C466.262 178.272 465.91 178.144 465.601 177.984C465.302 177.813 465.062 177.589 464.881 177.312C464.71 177.035 464.625 176.683 464.625 176.256C464.625 175.733 464.769 175.28 465.057 174.896C465.345 174.512 465.739 174.219 466.241 174.016C466.753 173.803 467.334 173.701 467.985 173.712C468.987 173.712 469.814 173.936 470.465 174.384C471.126 174.832 471.483 175.477 471.537 176.32H469.841C469.798 175.947 469.611 175.643 469.281 175.408C468.961 175.163 468.539 175.04 468.017 175.04C467.505 175.04 467.094 175.136 466.785 175.328C466.475 175.52 466.321 175.781 466.321 176.112C466.321 176.368 466.401 176.56 466.561 176.688C466.721 176.816 466.95 176.907 467.249 176.96C467.547 177.013 467.894 177.061 468.289 177.104C468.918 177.179 469.489 177.291 470.001 177.44C470.513 177.579 470.918 177.813 471.217 178.144C471.526 178.464 471.681 178.928 471.681 179.536C471.681 180.059 471.526 180.512 471.217 180.896C470.918 181.28 470.507 181.579 469.985 181.792C469.462 181.995 468.87 182.096 468.209 182.096Z" fill="#42474B"/>
<path d="M73.088 215.8H80.224V217.08H74.48V220.664H79.264V221.944H74.48V225.72H80.432V227H73.088V215.8ZM81.8023 227V218.84H82.9383L83.2103 220.536L82.9543 220.2C83.0929 219.987 83.2636 219.768 83.4663 219.544C83.6796 219.32 83.9516 219.133 84.2823 218.984C84.6129 218.824 85.0183 218.744 85.4983 218.744C85.9249 218.744 86.3196 218.819 86.6823 218.968C87.0556 219.107 87.3756 219.32 87.6423 219.608C87.9089 219.896 88.1009 220.264 88.2183 220.712L87.9143 220.616C88.1489 220.093 88.5009 219.651 88.9703 219.288C89.4503 218.925 90.0956 218.744 90.9062 218.744C91.4716 218.744 91.9889 218.861 92.4583 219.096C92.9276 219.331 93.3009 219.709 93.5783 220.232C93.8556 220.744 93.9943 221.432 93.9943 222.296V227H92.6823V222.376C92.6823 221.576 92.5116 220.973 92.1703 220.568C91.8396 220.152 91.3649 219.944 90.7463 219.944C90.0636 219.944 89.5249 220.184 89.1302 220.664C88.7463 221.144 88.5543 221.8 88.5543 222.632V227H87.2423V222.376C87.2423 221.576 87.0716 220.973 86.7303 220.568C86.3889 220.152 85.9036 219.944 85.2743 219.944C84.8263 219.944 84.4423 220.061 84.1223 220.296C83.8023 220.52 83.5516 220.84 83.3703 221.256C83.1996 221.672 83.1143 222.152 83.1143 222.696V227H81.8023ZM95.6293 221.288C95.6933 220.755 95.8746 220.301 96.1733 219.928C96.4719 219.544 96.8666 219.251 97.3573 219.048C97.8586 218.845 98.4346 218.744 99.0853 218.744C100.131 218.744 100.936 219 101.501 219.512C102.077 220.013 102.365 220.739 102.365 221.688V225.256C102.365 225.469 102.408 225.613 102.493 225.688C102.579 225.763 102.712 225.8 102.893 225.8H103.309V227H102.589C102.003 227 101.603 226.872 101.389 226.616C101.187 226.349 101.096 225.987 101.117 225.528L101.133 225.256L101.293 225.448C101.048 225.875 100.696 226.259 100.237 226.6C99.7893 226.931 99.1706 227.096 98.3813 227.096C97.7839 227.096 97.2559 227 96.7973 226.808C96.3493 226.616 95.9973 226.344 95.7413 225.992C95.4959 225.629 95.3733 225.203 95.3733 224.712C95.3733 223.891 95.6506 223.261 96.2053 222.824C96.7706 222.387 97.5866 222.168 98.6533 222.168H101.053V221.608C101.053 221.075 100.872 220.659 100.509 220.36C100.157 220.061 99.6613 219.912 99.0213 219.912C98.4453 219.912 97.9759 220.04 97.6133 220.296C97.2506 220.541 97.0266 220.872 96.9413 221.288H95.6293ZM101.053 223.272H98.5253C97.9386 223.272 97.4853 223.384 97.1653 223.608C96.8559 223.821 96.7013 224.163 96.7013 224.632C96.7013 225.027 96.8613 225.352 97.1813 225.608C97.5013 225.853 97.9333 225.976 98.4773 225.976C99.0213 225.976 99.4853 225.88 99.8693 225.688C100.253 225.485 100.547 225.213 100.749 224.872C100.952 224.52 101.053 224.12 101.053 223.672V223.272ZM104.318 218.84H105.63V227H104.318V218.84ZM104.99 217.464C104.755 217.464 104.553 217.384 104.382 217.224C104.222 217.064 104.142 216.861 104.142 216.616C104.142 216.371 104.222 216.168 104.382 216.008C104.553 215.848 104.755 215.768 104.99 215.768C105.235 215.768 105.438 215.848 105.598 216.008C105.758 216.168 105.838 216.371 105.838 216.616C105.838 216.861 105.758 217.064 105.598 217.224C105.438 217.384 105.235 217.464 104.99 217.464ZM107.427 215.8H108.739V227H107.427V215.8ZM114.676 221.288C114.74 220.755 114.921 220.301 115.22 219.928C115.519 219.544 115.913 219.251 116.404 219.048C116.905 218.845 117.481 218.744 118.132 218.744C119.177 218.744 119.983 219 120.548 219.512C121.124 220.013 121.412 220.739 121.412 221.688V225.256C121.412 225.469 121.455 225.613 121.54 225.688C121.625 225.763 121.759 225.8 121.94 225.8H122.356V227H121.636C121.049 227 120.649 226.872 120.436 226.616C120.233 226.349 120.143 225.987 120.164 225.528L120.18 225.256L120.34 225.448C120.095 225.875 119.743 226.259 119.284 226.6C118.836 226.931 118.217 227.096 117.428 227.096C116.831 227.096 116.303 227 115.844 226.808C115.396 226.616 115.044 226.344 114.788 225.992C114.543 225.629 114.42 225.203 114.42 224.712C114.42 223.891 114.697 223.261 115.252 222.824C115.817 222.387 116.633 222.168 117.7 222.168H120.1V221.608C120.1 221.075 119.919 220.659 119.556 220.36C119.204 220.061 118.708 219.912 118.068 219.912C117.492 219.912 117.023 220.04 116.66 220.296C116.297 220.541 116.073 220.872 115.988 221.288H114.676ZM120.1 223.272H117.572C116.985 223.272 116.532 223.384 116.212 223.608C115.903 223.821 115.748 224.163 115.748 224.632C115.748 225.027 115.908 225.352 116.228 225.608C116.548 225.853 116.98 225.976 117.524 225.976C118.068 225.976 118.532 225.88 118.916 225.688C119.3 225.485 119.593 225.213 119.796 224.872C119.999 224.52 120.1 224.12 120.1 223.672V223.272ZM129.641 215.8H130.953V227H129.817L129.561 225.096L129.817 225.416C129.561 225.843 129.193 226.232 128.713 226.584C128.233 226.925 127.609 227.096 126.841 227.096C126.094 227.096 125.422 226.936 124.825 226.616C124.238 226.285 123.774 225.811 123.433 225.192C123.091 224.563 122.921 223.805 122.921 222.92C122.921 222.088 123.091 221.357 123.433 220.728C123.774 220.099 124.238 219.613 124.825 219.272C125.422 218.92 126.094 218.744 126.841 218.744C127.609 218.744 128.238 218.899 128.729 219.208C129.23 219.517 129.587 219.907 129.801 220.376L129.641 220.68V215.8ZM126.969 219.912C126.425 219.912 125.95 220.04 125.545 220.296C125.139 220.552 124.825 220.904 124.601 221.352C124.377 221.8 124.265 222.323 124.265 222.92C124.265 223.507 124.377 224.029 124.601 224.488C124.825 224.936 125.139 225.288 125.545 225.544C125.95 225.8 126.425 225.928 126.969 225.928C127.502 225.928 127.971 225.8 128.377 225.544C128.782 225.288 129.097 224.936 129.321 224.488C129.545 224.04 129.657 223.528 129.657 222.952C129.657 222.355 129.545 221.827 129.321 221.368C129.097 220.909 128.782 220.552 128.377 220.296C127.971 220.04 127.502 219.912 126.969 219.912ZM139.172 215.8H140.484V227H139.348L139.092 225.096L139.348 225.416C139.092 225.843 138.724 226.232 138.244 226.584C137.764 226.925 137.14 227.096 136.372 227.096C135.625 227.096 134.953 226.936 134.356 226.616C133.769 226.285 133.305 225.811 132.964 225.192C132.622 224.563 132.452 223.805 132.452 222.92C132.452 222.088 132.622 221.357 132.964 220.728C133.305 220.099 133.769 219.613 134.356 219.272C134.953 218.92 135.625 218.744 136.372 218.744C137.14 218.744 137.769 218.899 138.26 219.208C138.761 219.517 139.118 219.907 139.332 220.376L139.172 220.68V215.8ZM136.5 219.912C135.956 219.912 135.481 220.04 135.076 220.296C134.67 220.552 134.356 220.904 134.132 221.352C133.908 221.8 133.796 222.323 133.796 222.92C133.796 223.507 133.908 224.029 134.132 224.488C134.356 224.936 134.67 225.288 135.076 225.544C135.481 225.8 135.956 225.928 136.5 225.928C137.033 225.928 137.502 225.8 137.908 225.544C138.313 225.288 138.628 224.936 138.852 224.488C139.076 224.04 139.188 223.528 139.188 222.952C139.188 222.355 139.076 221.827 138.852 221.368C138.628 220.909 138.313 220.552 137.908 220.296C137.502 220.04 137.033 219.912 136.5 219.912ZM142.271 218.84H143.407L143.663 220.664L143.439 220.328C143.567 220.093 143.727 219.864 143.919 219.64C144.111 219.405 144.378 219.213 144.719 219.064C145.06 218.915 145.503 218.84 146.047 218.84H146.415V220.12H145.759C145.194 220.12 144.751 220.259 144.431 220.536C144.111 220.803 143.887 221.144 143.759 221.56C143.642 221.976 143.583 222.403 143.583 222.84V227H142.271V218.84ZM150.594 227.096C149.783 227.096 149.074 226.92 148.466 226.568C147.858 226.216 147.383 225.731 147.042 225.112C146.711 224.483 146.546 223.752 146.546 222.92C146.546 222.088 146.706 221.363 147.026 220.744C147.356 220.115 147.81 219.624 148.386 219.272C148.972 218.92 149.65 218.744 150.418 218.744C151.186 218.744 151.852 218.899 152.418 219.208C152.994 219.517 153.442 219.96 153.762 220.536C154.092 221.112 154.268 221.805 154.29 222.616C154.29 222.701 154.284 222.792 154.274 222.888C154.274 222.984 154.268 223.08 154.258 223.176H147.922C147.922 223.187 147.922 223.203 147.922 223.224C147.922 223.245 147.922 223.267 147.922 223.288C147.943 223.8 148.055 224.259 148.258 224.664C148.471 225.059 148.77 225.368 149.154 225.592C149.538 225.816 149.986 225.928 150.498 225.928C151.074 225.928 151.57 225.784 151.986 225.496C152.402 225.197 152.679 224.787 152.818 224.264H154.146C154.039 224.808 153.826 225.293 153.506 225.72C153.186 226.147 152.775 226.483 152.274 226.728C151.783 226.973 151.223 227.096 150.594 227.096ZM148.002 222.088H152.882C152.818 221.384 152.562 220.845 152.114 220.472C151.676 220.088 151.116 219.896 150.434 219.896C150.039 219.896 149.66 219.987 149.298 220.168C148.946 220.349 148.652 220.605 148.418 220.936C148.183 221.256 148.044 221.64 148.002 222.088ZM159.051 227.096C157.995 227.096 157.136 226.856 156.475 226.376C155.813 225.896 155.472 225.208 155.451 224.312H156.795C156.816 224.792 157.024 225.192 157.419 225.512C157.824 225.821 158.368 225.976 159.051 225.976C159.435 225.976 159.771 225.928 160.059 225.832C160.357 225.725 160.592 225.576 160.763 225.384C160.933 225.192 161.019 224.973 161.019 224.728C161.019 224.387 160.928 224.136 160.747 223.976C160.565 223.816 160.315 223.704 159.995 223.64C159.675 223.576 159.312 223.523 158.907 223.48C158.448 223.427 158.021 223.357 157.627 223.272C157.232 223.176 156.885 223.048 156.587 222.888C156.288 222.728 156.053 222.515 155.883 222.248C155.712 221.971 155.627 221.619 155.627 221.192C155.627 220.691 155.765 220.259 156.043 219.896C156.32 219.523 156.699 219.235 157.179 219.032C157.669 218.829 158.219 218.733 158.827 218.744C159.755 218.755 160.523 218.973 161.131 219.4C161.749 219.827 162.091 220.467 162.155 221.32H160.811C160.768 220.904 160.565 220.557 160.203 220.28C159.851 220.003 159.392 219.864 158.827 219.864C158.261 219.864 157.803 219.976 157.451 220.2C157.099 220.424 156.923 220.723 156.923 221.096C156.923 221.395 157.008 221.619 157.179 221.768C157.36 221.917 157.605 222.024 157.915 222.088C158.224 222.141 158.576 222.195 158.971 222.248C159.589 222.323 160.149 222.429 160.651 222.568C161.163 222.707 161.568 222.936 161.867 223.256C162.165 223.565 162.315 224.024 162.315 224.632C162.315 225.133 162.165 225.571 161.867 225.944C161.579 226.317 161.189 226.605 160.699 226.808C160.208 227 159.659 227.096 159.051 227.096ZM166.879 227.096C165.823 227.096 164.964 226.856 164.303 226.376C163.641 225.896 163.3 225.208 163.279 224.312H164.623C164.644 224.792 164.852 225.192 165.247 225.512C165.652 225.821 166.196 225.976 166.879 225.976C167.263 225.976 167.599 225.928 167.887 225.832C168.185 225.725 168.42 225.576 168.591 225.384C168.761 225.192 168.847 224.973 168.847 224.728C168.847 224.387 168.756 224.136 168.575 223.976C168.393 223.816 168.143 223.704 167.823 223.64C167.503 223.576 167.14 223.523 166.735 223.48C166.276 223.427 165.849 223.357 165.455 223.272C165.06 223.176 164.713 223.048 164.415 222.888C164.116 222.728 163.881 222.515 163.711 222.248C163.54 221.971 163.455 221.619 163.455 221.192C163.455 220.691 163.593 220.259 163.871 219.896C164.148 219.523 164.527 219.235 165.007 219.032C165.497 218.829 166.047 218.733 166.655 218.744C167.583 218.755 168.351 218.973 168.959 219.4C169.577 219.827 169.919 220.467 169.983 221.32H168.639C168.596 220.904 168.393 220.557 168.031 220.28C167.679 220.003 167.22 219.864 166.655 219.864C166.089 219.864 165.631 219.976 165.279 220.2C164.927 220.424 164.751 220.723 164.751 221.096C164.751 221.395 164.836 221.619 165.007 221.768C165.188 221.917 165.433 222.024 165.743 222.088C166.052 222.141 166.404 222.195 166.799 222.248C167.417 222.323 167.977 222.429 168.479 222.568C168.991 222.707 169.396 222.936 169.695 223.256C169.993 223.565 170.143 224.024 170.143 224.632C170.143 225.133 169.993 225.571 169.695 225.944C169.407 226.317 169.017 226.605 168.527 226.808C168.036 227 167.487 227.096 166.879 227.096Z" fill="#636C71"/>
<path d="M349.72 225.624C350.211 225.624 350.632 225.507 350.984 225.272C351.347 225.037 351.629 224.717 351.832 224.312C352.035 223.896 352.136 223.427 352.136 222.904C352.136 222.371 352.035 221.901 351.832 221.496C351.629 221.091 351.347 220.771 350.984 220.536C350.632 220.301 350.211 220.184 349.72 220.184C349.229 220.184 348.803 220.301 348.44 220.536C348.088 220.771 347.811 221.091 347.608 221.496C347.416 221.901 347.32 222.371 347.32 222.904C347.32 223.427 347.416 223.896 347.608 224.312C347.811 224.717 348.088 225.037 348.44 225.272C348.803 225.507 349.229 225.624 349.72 225.624ZM349.72 227.096C348.899 227.096 348.168 226.92 347.528 226.568C346.899 226.216 346.408 225.725 346.056 225.096C345.715 224.467 345.544 223.736 345.544 222.904C345.544 222.072 345.715 221.341 346.056 220.712C346.408 220.083 346.899 219.592 347.528 219.24C348.168 218.888 348.899 218.712 349.72 218.712C350.552 218.712 351.283 218.888 351.912 219.24C352.541 219.592 353.027 220.083 353.368 220.712C353.72 221.341 353.896 222.072 353.896 222.904C353.896 223.736 353.72 224.467 353.368 225.096C353.027 225.725 352.541 226.216 351.912 226.568C351.283 226.92 350.552 227.096 349.72 227.096ZM355.286 215.8H357.014V227H355.286V215.8ZM358.707 218.808H360.435V227H358.707V218.808ZM359.587 217.656C359.299 217.656 359.049 217.56 358.835 217.368C358.633 217.165 358.531 216.915 358.531 216.616C358.531 216.317 358.633 216.072 358.835 215.88C359.049 215.677 359.299 215.576 359.587 215.576C359.886 215.576 360.137 215.677 360.339 215.88C360.542 216.072 360.643 216.317 360.643 216.616C360.643 216.915 360.542 217.165 360.339 217.368C360.137 217.56 359.886 217.656 359.587 217.656ZM361.313 218.808H363.169L365.425 225.144L367.649 218.808H369.473L366.449 227H364.337L361.313 218.808ZM370.348 218.808H372.076V227H370.348V218.808ZM371.228 217.656C370.94 217.656 370.689 217.56 370.476 217.368C370.273 217.165 370.172 216.915 370.172 216.616C370.172 216.317 370.273 216.072 370.476 215.88C370.689 215.677 370.94 215.576 371.228 215.576C371.527 215.576 371.777 215.677 371.98 215.88C372.183 216.072 372.284 216.317 372.284 216.616C372.284 216.915 372.183 217.165 371.98 217.368C371.777 217.56 371.527 217.656 371.228 217.656ZM373.69 221.304C373.743 220.771 373.925 220.312 374.234 219.928C374.554 219.544 374.97 219.245 375.482 219.032C376.005 218.819 376.613 218.712 377.306 218.712C378.394 218.712 379.237 218.968 379.834 219.48C380.431 219.981 380.73 220.717 380.73 221.688V224.968C380.73 225.171 380.773 225.309 380.858 225.384C380.943 225.459 381.077 225.496 381.258 225.496H381.61V227H380.698C380.111 227 379.711 226.872 379.498 226.616C379.285 226.36 379.183 226.013 379.194 225.576L379.21 224.984L379.45 225.24C379.194 225.773 378.831 226.216 378.362 226.568C377.893 226.92 377.269 227.096 376.49 227.096C375.893 227.096 375.365 227.005 374.906 226.824C374.447 226.632 374.09 226.355 373.834 225.992C373.578 225.629 373.45 225.197 373.45 224.696C373.45 223.853 373.749 223.208 374.346 222.76C374.943 222.301 375.813 222.072 376.954 222.072H379.018V221.576C379.018 221.117 378.858 220.76 378.538 220.504C378.229 220.237 377.791 220.104 377.226 220.104C376.714 220.104 376.293 220.216 375.962 220.44C375.642 220.653 375.45 220.941 375.386 221.304H373.69ZM379.018 223.352H376.874C376.341 223.352 375.93 223.453 375.642 223.656C375.354 223.859 375.21 224.168 375.21 224.584C375.21 224.925 375.343 225.208 375.61 225.432C375.887 225.645 376.261 225.752 376.73 225.752C377.21 225.752 377.615 225.661 377.946 225.48C378.287 225.299 378.549 225.053 378.73 224.744C378.922 224.424 379.018 224.056 379.018 223.64V223.352ZM389.239 224.952C389.602 224.952 389.932 224.851 390.231 224.648C390.54 224.435 390.78 224.141 390.951 223.768C391.132 223.395 391.223 222.947 391.223 222.424C391.223 221.88 391.074 221.459 390.775 221.16C390.487 220.861 390.114 220.712 389.655 220.712C389.271 220.712 388.924 220.824 388.615 221.048C388.316 221.261 388.076 221.544 387.895 221.896C387.714 222.237 387.623 222.627 387.623 223.064C387.623 223.459 387.692 223.8 387.831 224.088C387.98 224.365 388.172 224.579 388.407 224.728C388.652 224.877 388.93 224.952 389.239 224.952ZM389.559 229.512C388.524 229.512 387.575 229.363 386.711 229.064C385.858 228.765 385.111 228.333 384.471 227.768C383.831 227.213 383.335 226.541 382.983 225.752C382.642 224.963 382.471 224.077 382.471 223.096C382.471 222.083 382.663 221.155 383.047 220.312C383.431 219.459 383.959 218.723 384.631 218.104C385.314 217.475 386.103 216.989 386.999 216.648C387.895 216.296 388.855 216.12 389.879 216.12C390.882 216.12 391.794 216.264 392.615 216.552C393.436 216.829 394.146 217.229 394.743 217.752C395.351 218.275 395.82 218.893 396.151 219.608C396.482 220.312 396.647 221.091 396.647 221.944C396.647 222.797 396.487 223.549 396.167 224.2C395.858 224.84 395.431 225.341 394.887 225.704C394.343 226.056 393.724 226.232 393.031 226.232C392.54 226.232 392.14 226.109 391.831 225.864C391.532 225.619 391.356 225.331 391.303 225L391.271 224.776C391.079 225.213 390.759 225.565 390.311 225.832C389.874 226.088 389.378 226.216 388.823 226.216C388.322 226.216 387.858 226.093 387.431 225.848C387.015 225.592 386.674 225.235 386.407 224.776C386.151 224.317 386.023 223.779 386.023 223.16C386.023 222.467 386.172 221.843 386.471 221.288C386.77 220.733 387.164 220.296 387.655 219.976C388.156 219.645 388.706 219.48 389.303 219.48C389.9 219.48 390.37 219.592 390.711 219.816C391.063 220.04 391.287 220.301 391.383 220.6L391.655 219.608H393.015L392.535 224.12C392.492 224.472 392.54 224.728 392.679 224.888C392.828 225.037 393.047 225.112 393.335 225.112C393.655 225.112 393.959 224.973 394.247 224.696C394.535 224.419 394.764 224.035 394.935 223.544C395.116 223.053 395.207 222.504 395.207 221.896C395.207 221.203 395.079 220.579 394.823 220.024C394.578 219.459 394.22 218.973 393.751 218.568C393.282 218.163 392.716 217.853 392.055 217.64C391.404 217.427 390.668 217.32 389.847 217.32C388.972 217.32 388.172 217.469 387.447 217.768C386.722 218.056 386.092 218.461 385.559 218.984C385.026 219.507 384.615 220.115 384.327 220.808C384.039 221.501 383.895 222.253 383.895 223.064C383.895 224.163 384.119 225.101 384.567 225.88C385.026 226.659 385.687 227.251 386.551 227.656C387.415 228.072 388.466 228.28 389.703 228.28C390.375 228.28 391.015 228.2 391.623 228.04C392.242 227.891 392.802 227.667 393.303 227.368L393.255 228.68C392.86 228.925 392.338 229.123 391.687 229.272C391.036 229.432 390.327 229.512 389.559 229.512ZM402.014 230.296C401.289 230.296 400.644 230.184 400.078 229.96C399.524 229.747 399.081 229.427 398.75 229C398.42 228.584 398.222 228.067 398.158 227.448H399.918C400.025 227.907 400.27 228.259 400.654 228.504C401.038 228.76 401.534 228.888 402.142 228.888C402.889 228.888 403.465 228.701 403.87 228.328C404.286 227.955 404.494 227.379 404.494 226.6V224.872L404.75 225.24C404.494 225.773 404.126 226.205 403.646 226.536C403.177 226.867 402.569 227.032 401.822 227.032C401.086 227.032 400.425 226.867 399.838 226.536C399.252 226.205 398.788 225.731 398.446 225.112C398.116 224.483 397.95 223.736 397.95 222.872C397.95 222.04 398.116 221.309 398.446 220.68C398.788 220.051 399.252 219.565 399.838 219.224C400.425 218.883 401.086 218.712 401.822 218.712C402.58 218.712 403.198 218.883 403.678 219.224C404.158 219.565 404.516 220.008 404.75 220.552L404.382 220.92L404.702 218.808H406.206V226.664C406.206 227.4 406.062 228.04 405.774 228.584C405.486 229.139 405.033 229.56 404.414 229.848C403.796 230.147 402.996 230.296 402.014 230.296ZM402.11 225.576C402.601 225.576 403.022 225.464 403.374 225.24C403.737 225.005 404.014 224.691 404.206 224.296C404.398 223.891 404.494 223.427 404.494 222.904C404.494 222.371 404.398 221.896 404.206 221.48C404.014 221.064 403.737 220.744 403.374 220.52C403.022 220.285 402.601 220.168 402.11 220.168C401.63 220.168 401.209 220.285 400.846 220.52C400.494 220.744 400.217 221.059 400.014 221.464C399.822 221.869 399.726 222.339 399.726 222.872C399.726 223.405 399.822 223.875 400.014 224.28C400.217 224.685 400.494 225.005 400.846 225.24C401.209 225.464 401.63 225.576 402.11 225.576ZM407.895 227V218.808H409.399L409.735 220.68L409.335 220.264C409.495 220.008 409.682 219.763 409.895 219.528C410.119 219.293 410.402 219.101 410.743 218.952C411.084 218.792 411.5 218.712 411.991 218.712C412.407 218.712 412.802 218.787 413.175 218.936C413.548 219.075 413.868 219.299 414.135 219.608C414.412 219.917 414.61 220.323 414.727 220.824L414.279 220.664C414.524 220.088 414.892 219.619 415.383 219.256C415.884 218.893 416.53 218.712 417.319 218.712C417.884 218.712 418.402 218.829 418.871 219.064C419.34 219.299 419.708 219.677 419.975 220.2C420.252 220.723 420.391 221.416 420.391 222.28V227H418.663V222.392C418.663 221.677 418.519 221.133 418.231 220.76C417.943 220.387 417.516 220.2 416.951 220.2C416.354 220.2 415.879 220.413 415.527 220.84C415.186 221.256 415.015 221.832 415.015 222.568V227H413.271V222.392C413.271 221.677 413.127 221.133 412.839 220.76C412.551 220.387 412.119 220.2 411.543 220.2C411.148 220.2 410.807 220.301 410.519 220.504C410.242 220.696 410.023 220.979 409.863 221.352C409.703 221.715 409.623 222.136 409.623 222.616V227H407.895ZM421.877 221.304C421.931 220.771 422.112 220.312 422.421 219.928C422.741 219.544 423.157 219.245 423.669 219.032C424.192 218.819 424.8 218.712 425.493 218.712C426.581 218.712 427.424 218.968 428.021 219.48C428.619 219.981 428.917 220.717 428.917 221.688V224.968C428.917 225.171 428.96 225.309 429.045 225.384C429.131 225.459 429.264 225.496 429.445 225.496H429.797V227H428.885C428.299 227 427.899 226.872 427.685 226.616C427.472 226.36 427.371 226.013 427.381 225.576L427.397 224.984L427.637 225.24C427.381 225.773 427.019 226.216 426.549 226.568C426.08 226.92 425.456 227.096 424.677 227.096C424.08 227.096 423.552 227.005 423.093 226.824C422.635 226.632 422.277 226.355 422.021 225.992C421.765 225.629 421.637 225.197 421.637 224.696C421.637 223.853 421.936 223.208 422.533 222.76C423.131 222.301 424 222.072 425.141 222.072H427.205V221.576C427.205 221.117 427.045 220.76 426.725 220.504C426.416 220.237 425.979 220.104 425.413 220.104C424.901 220.104 424.48 220.216 424.149 220.44C423.829 220.653 423.637 220.941 423.573 221.304H421.877ZM427.205 223.352H425.061C424.528 223.352 424.117 223.453 423.829 223.656C423.541 223.859 423.397 224.168 423.397 224.584C423.397 224.925 423.531 225.208 423.797 225.432C424.075 225.645 424.448 225.752 424.917 225.752C425.397 225.752 425.803 225.661 426.133 225.48C426.475 225.299 426.736 225.053 426.917 224.744C427.109 224.424 427.205 224.056 427.205 223.64V223.352ZM430.739 218.808H432.467V227H430.739V218.808ZM431.619 217.656C431.331 217.656 431.08 217.56 430.867 217.368C430.664 217.165 430.563 216.915 430.563 216.616C430.563 216.317 430.664 216.072 430.867 215.88C431.08 215.677 431.331 215.576 431.619 215.576C431.917 215.576 432.168 215.677 432.371 215.88C432.573 216.072 432.675 216.317 432.675 216.616C432.675 216.915 432.573 217.165 432.371 217.368C432.168 217.56 431.917 217.656 431.619 217.656ZM434.161 215.8H435.889V227H434.161V215.8ZM438.526 227.096C438.206 227.096 437.94 226.995 437.726 226.792C437.524 226.589 437.422 226.328 437.422 226.008C437.422 225.677 437.524 225.416 437.726 225.224C437.94 225.021 438.206 224.92 438.526 224.92C438.846 224.92 439.113 225.021 439.326 225.224C439.54 225.416 439.646 225.677 439.646 226.008C439.646 226.328 439.54 226.589 439.326 226.792C439.113 226.995 438.846 227.096 438.526 227.096ZM444.28 227.096C443.459 227.096 442.739 226.925 442.12 226.584C441.512 226.243 441.043 225.757 440.712 225.128C440.381 224.499 440.216 223.763 440.216 222.92C440.216 222.077 440.387 221.341 440.728 220.712C441.069 220.083 441.549 219.592 442.168 219.24C442.787 218.888 443.507 218.712 444.328 218.712C445.384 218.712 446.232 218.984 446.872 219.528C447.512 220.072 447.917 220.808 448.088 221.736H446.28C446.173 221.256 445.949 220.877 445.608 220.6C445.267 220.323 444.829 220.184 444.296 220.184C443.837 220.184 443.432 220.301 443.08 220.536C442.739 220.76 442.472 221.08 442.28 221.496C442.088 221.901 441.992 222.376 441.992 222.92C441.992 223.453 442.088 223.928 442.28 224.344C442.472 224.749 442.739 225.064 443.08 225.288C443.432 225.512 443.837 225.624 444.296 225.624C444.829 225.624 445.261 225.485 445.592 225.208C445.933 224.931 446.157 224.552 446.264 224.072H448.088C447.928 224.989 447.512 225.725 446.84 226.28C446.179 226.824 445.325 227.096 444.28 227.096ZM453.283 225.624C453.773 225.624 454.195 225.507 454.547 225.272C454.909 225.037 455.192 224.717 455.395 224.312C455.597 223.896 455.699 223.427 455.699 222.904C455.699 222.371 455.597 221.901 455.395 221.496C455.192 221.091 454.909 220.771 454.547 220.536C454.195 220.301 453.773 220.184 453.283 220.184C452.792 220.184 452.365 220.301 452.003 220.536C451.651 220.771 451.373 221.091 451.171 221.496C450.979 221.901 450.883 222.371 450.883 222.904C450.883 223.427 450.979 223.896 451.171 224.312C451.373 224.717 451.651 225.037 452.003 225.272C452.365 225.507 452.792 225.624 453.283 225.624ZM453.283 227.096C452.461 227.096 451.731 226.92 451.091 226.568C450.461 226.216 449.971 225.725 449.618 225.096C449.277 224.467 449.107 223.736 449.107 222.904C449.107 222.072 449.277 221.341 449.618 220.712C449.971 220.083 450.461 219.592 451.091 219.24C451.731 218.888 452.461 218.712 453.283 218.712C454.115 218.712 454.845 218.888 455.475 219.24C456.104 219.592 456.589 220.083 456.931 220.712C457.283 221.341 457.459 222.072 457.459 222.904C457.459 223.736 457.283 224.467 456.931 225.096C456.589 225.725 456.104 226.216 455.475 226.568C454.845 226.92 454.115 227.096 453.283 227.096ZM458.848 227V218.808H460.352L460.688 220.68L460.288 220.264C460.448 220.008 460.635 219.763 460.848 219.528C461.072 219.293 461.355 219.101 461.696 218.952C462.037 218.792 462.453 218.712 462.944 218.712C463.36 218.712 463.755 218.787 464.128 218.936C464.501 219.075 464.821 219.299 465.088 219.608C465.365 219.917 465.563 220.323 465.68 220.824L465.232 220.664C465.477 220.088 465.845 219.619 466.336 219.256C466.837 218.893 467.483 218.712 468.272 218.712C468.837 218.712 469.355 218.829 469.824 219.064C470.293 219.299 470.661 219.677 470.928 220.2C471.205 220.723 471.344 221.416 471.344 222.28V227H469.616V222.392C469.616 221.677 469.472 221.133 469.184 220.76C468.896 220.387 468.469 220.2 467.904 220.2C467.307 220.2 466.832 220.413 466.48 220.84C466.139 221.256 465.968 221.832 465.968 222.568V227H464.224V222.392C464.224 221.677 464.08 221.133 463.792 220.76C463.504 220.387 463.072 220.2 462.496 220.2C462.101 220.2 461.76 220.301 461.472 220.504C461.195 220.696 460.976 220.979 460.816 221.352C460.656 221.715 460.576 222.136 460.576 222.616V227H458.848Z" fill="#42474B"/>
</svg>
