<svg width="25" height="24" viewBox="0 0 25 24" fill="none" xmlns="http://www.w3.org/2000/svg">
<path d="M15.333 22.75H9.33301C3.90301 22.75 1.58301 20.43 1.58301 15V9C1.58301 3.57 3.90301 1.25 9.33301 1.25H15.333C20.763 1.25 23.083 3.57 23.083 9V15C23.083 20.43 20.763 22.75 15.333 22.75ZM9.33301 2.75C4.72301 2.75 3.08301 4.39 3.08301 9V15C3.08301 19.61 4.72301 21.25 9.33301 21.25H15.333C19.943 21.25 21.583 19.61 21.583 15V9C21.583 4.39 19.943 2.75 15.333 2.75H9.33301Z" fill="#121212"/>
<path d="M14.2831 22.7507C13.9431 22.7507 13.6431 22.5207 13.5531 22.1807L8.60311 2.18067C8.50311 1.78067 8.75309 1.37068 9.15309 1.27068C9.55309 1.17068 9.96307 1.41068 10.0631 1.82068L15.0131 21.8207C15.1131 22.2207 14.8631 22.6307 14.4631 22.7307C14.4031 22.7407 14.3431 22.7507 14.2831 22.7507Z" fill="#121212"/>
<path d="M2.33286 15.7506C2.00286 15.7506 1.71289 15.5406 1.61289 15.2106C1.49289 14.8106 1.72284 14.4006 2.12284 14.2806L11.6529 11.5006C12.0529 11.3806 12.4629 11.6106 12.5829 12.0106C12.7029 12.4106 12.4728 12.8206 12.0729 12.9406L2.54288 15.7206C2.47288 15.7406 2.40286 15.7506 2.33286 15.7506Z" fill="#121212"/>
</svg>
